<?xml version="1.0" encoding="UTF-8" standalone="no"?>
<!DOCTYPE svg PUBLIC "-//W3C//DTD SVG 1.1//EN" "http://www.w3.org/Graphics/SVG/1.1/DTD/svg11.dtd">
<!-- Created with Vectornator (http://vectornator.io/) -->
<svg height="100%" stroke-miterlimit="10" style="fill-rule:nonzero;clip-rule:evenodd;stroke-linecap:round;stroke-linejoin:round;" version="1.1" viewBox="0 0 841.995 595.35" width="100%" xml:space="preserve" xmlns="http://www.w3.org/2000/svg" xmlns:vectornator="http://vectornator.io" xmlns:xlink="http://www.w3.org/1999/xlink">
<defs/>
<g id="Capa-1" vectornator:layerName="Capa 1">
<g opacity="1" vectornator:layerName="Grupo 3">
<g opacity="1" vectornator:layerName="Grupo 2">
<path d="M238.571 238.758L162.041 392.451L199.014 521.138L270.552 551.477L332.529 356.042L238.571 238.758Z" fill="#626060" fill-rule="nonzero" opacity="0.999808" stroke="none" vectornator:layerName="Óvalo 17"/>
<path d="M620.79 257.173L683.426 421.027L635.465 543.513L561.736 563.245L517.2 360.034L620.79 257.173Z" fill="#626060" fill-rule="nonzero" opacity="0.999808" stroke="none" vectornator:layerName="Óvalo 18"/>
<path d="M551.554 568.453L527.349 359.582L551.554 568.453Z" fill="#8b8b8b" fill-rule="nonzero" opacity="0.999808" stroke="none" vectornator:layerName="Óvalo 19"/>
<path d="M242.741 315.134C242.741 315.134 204.241 381.999 220.315 433.119C236.39 484.24 262.259 505.973 262.259 505.973L300.08 386.708L242.741 315.134Z" fill="#c9b09a" fill-rule="nonzero" opacity="0.999808" stroke="none" vectornator:layerName="Óvalo 20"/>
<path d="M609.984 332.456C609.984 332.456 642.407 404.5 621.976 452.954C601.545 501.409 573.945 519.239 573.945 519.239L546.767 395.227L609.984 332.456Z" fill="#c9b09a" fill-rule="nonzero" opacity="0.999808" stroke="none" vectornator:layerName="Óvalo 21"/>
<path d="M539.42 330.539L566.004 590.671L266.489 575.724L311.054 303.056L405.878 318.711L432.106 278.812L430.893 317.478L450.216 286.416L449.869 320.399L539.42 330.539Z" fill="#626060" fill-rule="nonzero" opacity="0.999808" stroke="none" vectornator:layerName="Óvalo 22"/>
<path d="M349.385 444.874L352.344 502.07L313.163 499.903L319.544 439.679L349.385 444.874Z" fill="#000000" fill-rule="nonzero" opacity="0.999808" stroke="none" vectornator:layerName="Óvalo 23"/>
<path d="M530.249 444.874L533.207 502.07L494.027 499.903L500.408 439.679L530.249 444.874Z" fill="#000000" fill-rule="nonzero" opacity="0.999808" stroke="none" vectornator:layerName="Óvalo 24"/>
<path d="M320.121 458.157L328.563 446.603L337.005 458.157L328.563 469.712L320.121 458.157Z" fill="#c9b09a" fill-rule="nonzero" opacity="0.999808" stroke="none" vectornator:layerName="Óvalo 25"/>
<path d="M499.551 455.807L507.993 444.253L516.436 455.807L507.993 467.362L499.551 455.807Z" fill="#c9b09a" fill-rule="nonzero" opacity="0.999808" stroke="none" vectornator:layerName="Óvalo 26"/>
<path d="M450.177 503.876L456.817 574.251L380.894 570.422L392.296 496.603L450.177 503.876Z" fill="#c9b09a" fill-rule="nonzero" opacity="0.999808" stroke="none" vectornator:layerName="Óvalo 27"/>
<path d="M444.946 446.475L450.281 503.771L389.119 500.681L398.319 440.575L444.946 446.475Z" fill="#000000" fill-rule="nonzero" opacity="0.999808" stroke="none" vectornator:layerName="Óvalo 28"/>
</g>
<g opacity="1" vectornator:layerName="Grupo 1">
<path d="M423.348 3.20143L371.559 90.1527L291.249 104.711L345.462 167.741L359.747 252.118L345.462 339.246L506.105 339.246L490.677 199.55L506.105 159.753L551.453 98.7688L471.302 67.0197L423.348 3.20143Z" fill="#f0e2e2" fill-rule="nonzero" opacity="0.999808" stroke="none" vectornator:layerName="Curva 1"/>
</g>
<path d="M385.58 194.049L398.044 189.265L406.018 248.999L397.646 311.755L383.188 315.542L391.162 248.401L385.58 194.049Z" fill="#000000" fill-rule="nonzero" opacity="0.999808" stroke="#000000" stroke-linecap="butt" stroke-linejoin="round" stroke-width="0.377293" vectornator:layerName="Rectángulo 2"/>
<path d="M439.185 187.55L454.041 187.55L448.459 205.145L454.041 313.828L439.185 313.828L433.603 204.148L439.185 187.55Z" fill="#000000" fill-rule="nonzero" opacity="0.999808" stroke="#000000" stroke-linecap="butt" stroke-linejoin="round" stroke-width="0.377293" vectornator:layerName="Rectángulo 1"/>
</g>
</g>
</svg>
