<?xml version="1.0" encoding="UTF-8" standalone="no"?>
<!DOCTYPE svg PUBLIC "-//W3C//DTD SVG 1.1//EN" "http://www.w3.org/Graphics/SVG/1.1/DTD/svg11.dtd">
<!-- Created with Vectornator (http://vectornator.io/) -->
<svg height="100%" stroke-miterlimit="10" style="fill-rule:nonzero;clip-rule:evenodd;stroke-linecap:round;stroke-linejoin:round;" version="1.1" viewBox="0 0 841.995 595.35" width="100%" xml:space="preserve" xmlns="http://www.w3.org/2000/svg" xmlns:vectornator="http://vectornator.io" xmlns:xlink="http://www.w3.org/1999/xlink">
<defs/>
<g id="Capa-1" vectornator:layerName="Capa 1">
<path d="M736.961 172.612C750.043 176.598 621.069 270.357 583.475 301.605C526.412 349.037 425.86 287.742 319.395 317.23C264.795 332.353 190.477 510.714 135.484 569.803C97.3667 610.759 18.3023 591.227 6.35829 585.863C-12.2367 577.514 27.71 522.495 27.71 522.495C37.9994 523.648 51.2708 578.104 98.4215 533.822C160.779 475.257 252.989 305.149 313.453 288.582C419.348 259.567 494.618 330.582 573.425 277.668C652.729 224.42 719.953 167.429 736.961 172.612Z" fill="#b1935d" fill-rule="nonzero" opacity="1" stroke="none" vectornator:layerName="Polígono 4"/>
<path d="M432.772 432.046C432.772 432.046 372.661 462.747 326.307 461.236C292.917 460.147 266.03 441.728 243.234 415.829C221.478 391.114 245.885 359.067 279.393 352.949C293.352 350.401 330.286 345.771 357.57 361.582C395.78 383.725 432.772 432.046 432.772 432.046Z" fill="#6e9944" fill-rule="nonzero" opacity="1" stroke="none" vectornator:layerName="Polígono 5"/>
<path d="M82.2134 252.174C82.2134 252.174 145.156 278.921 174.786 316.262C196.13 343.16 200.148 376.463 195.837 411.523C191.723 444.981 151.467 447.117 124.636 424.909C113.458 415.658 85.4694 389.777 79.23 357.894C70.4921 313.244 82.2134 252.174 82.2134 252.174Z" fill="#6e9944" fill-rule="nonzero" opacity="1" stroke="none" vectornator:layerName="Polígono 6"/>
<path d="M549.557 77.6217C549.557 77.6217 570.918 153.359 559.573 206.507C551.401 244.79 525.446 271.956 492.085 292.842C460.248 312.775 429.949 277.936 430.187 238.013C430.286 221.381 432.882 177.817 456.039 149.649C488.469 110.201 549.557 77.6217 549.557 77.6217Z" fill="#6e9944" fill-rule="nonzero" opacity="1" stroke="none" vectornator:layerName="Polígono 7"/>
<path d="M821.433 388.655C821.433 388.655 741.848 397.428 690.708 376.073C653.871 360.691 631.336 328.718 616.407 290.131C602.159 253.307 642.429 227.882 682.325 235.269C698.946 238.347 742.062 248.848 766.101 278.077C799.764 319.011 821.433 388.655 821.433 388.655Z" fill="#6e9944" fill-rule="nonzero" opacity="1" stroke="none" vectornator:layerName="Polígono 8"/>
<path d="M346.59 63.1842C346.59 63.1842 386.743 126.513 390.792 178.426C393.709 215.82 377.311 248.075 352.422 276.679C328.67 303.976 291.443 280.656 280.811 244.01C276.382 228.744 266.921 188.094 280.483 155.715C299.476 110.37 346.59 63.1842 346.59 63.1842Z" fill="#6e9944" fill-rule="nonzero" opacity="1" stroke="none" vectornator:layerName="Polígono 9"/>
<path d="M605.104 506.684C605.104 506.684 534.416 480.91 499.899 441.532C475.036 413.168 468.941 376.743 471.936 337.9C474.794 300.831 519.04 296.133 549.715 319.015C562.494 328.547 594.627 355.405 603.098 390.137C614.961 438.777 605.104 506.684 605.104 506.684Z" fill="#6e9944" fill-rule="nonzero" opacity="1" stroke="none" vectornator:layerName="Polígono 10"/>
<path d="M832.418 13.8001C832.418 13.8001 839.071 83.0763 820.87 127.37C807.76 159.275 780.953 178.609 748.7 191.275C717.921 203.362 697.082 168.137 703.559 133.505C706.258 119.078 715.356 81.6718 739.891 61.0088C774.251 32.0716 832.418 13.8001 832.418 13.8001Z" fill="#6e9944" fill-rule="nonzero" opacity="1" stroke="none" vectornator:layerName="Polígono 11"/>
</g>
</svg>
