<?xml version="1.0" encoding="UTF-8" standalone="no"?>
<!DOCTYPE svg PUBLIC "-//W3C//DTD SVG 1.1//EN" "http://www.w3.org/Graphics/SVG/1.1/DTD/svg11.dtd">
<!-- Created with Vectornator (http://vectornator.io/) -->
<svg height="100%" stroke-miterlimit="10" style="fill-rule:nonzero;clip-rule:evenodd;stroke-linecap:round;stroke-linejoin:round;" version="1.1" viewBox="0 0 841.995 595.35" width="100%" xml:space="preserve" xmlns="http://www.w3.org/2000/svg" xmlns:vectornator="http://vectornator.io" xmlns:xlink="http://www.w3.org/1999/xlink">
<defs/>
<clipPath id="ArtboardFrame">
<rect height="595.35" width="841.995" x="0" y="0"/>
</clipPath>
<g clip-path="url(#ArtboardFrame)" id="Capa-4" vectornator:layerName="Capa 4">
<path d="M0 0.892416L841.995 0.892416L841.995 596.242L0 596.242L0 0.892416Z" fill="#dddddd" fill-rule="nonzero" opacity="1" stroke="none" vectornator:layerName="Rectángulo 1"/>
<path d="M414.973-386.016C414.973-386.566 415.708-387.012 416.616-387.012L425.379-387.012C426.287-387.012 427.022-386.566 427.022-386.016L427.022-386.016C427.022-385.466 426.287-385.02 425.379-385.02L416.616-385.02C415.708-385.02 414.973-385.466 414.973-386.016L414.973-386.016Z" fill="#b1935d" fill-rule="nonzero" opacity="1" stroke="#4a3612" stroke-linecap="butt" stroke-linejoin="round" stroke-width="4" vectornator:layerName="Rectángulo 2"/>
</g>
<g clip-path="url(#ArtboardFrame)" id="Capa-2" vectornator:layerName="Capa 2">
<path d="M203.521 20.5677C205.924 21.2465 261.892 151.043 247.721 186.637C218.12 260.987-46.4252 335.55-53.5379 339.909C-67.2294 348.298-65.5192 340.246-70.5932 319.005C-74.0355 304.595 223.318 243.619 234.033 175.401C237.715 151.957 201.682 20.0482 203.521 20.5677Z" fill="#b1935d" fill-rule="nonzero" opacity="1" stroke="none" vectornator:layerName="Polígono 3"/>
<path d="M569.18 626.671C566.827 625.838 519.378 492.69 535.824 458.089C570.176 385.811 838.993 328.53 846.373 324.641C860.579 317.155 858.351 325.08 862.039 346.605C864.542 361.208 563.864 402.806 548.756 470.188C543.564 493.344 570.982 627.309 569.18 626.671Z" fill="#b1935d" fill-rule="nonzero" opacity="1" stroke="none" vectornator:layerName="Polígono 2"/>
<path d="M846.634 119.724C849.06 125.229 781.442 108.14 760.445 104.254C728.574 98.355 719.994 47.4818 679.91 19.9894C659.354 5.89014 579.556 30.783 544.448 28.8363C520.114 27.487 503.953-4.50579 502.304-10.013C499.737-18.5868 529.212-20.5525 529.212-20.5525C531.772-16.7772 517.676 2.89248 545.683 6.34422C582.721 10.9092 664.917-5.67303 687.622 9.99061C727.388 37.4238 725.557 82.528 765.436 94.1922C805.568 105.93 843.48 112.568 846.634 119.724Z" fill="#b1935d" fill-rule="nonzero" opacity="1" stroke="none" vectornator:layerName="Polígono 4"/>
<path d="M16.0993 495.649C13.5403 490.205 81.5539 505.646 102.639 509.02C134.643 514.143 144.457 564.792 185.197 591.303C220.572 614.322 278.456 583.186 280.616 583.13C289.563 582.897 282.621 591.709 283.02 597.973C283.283 602.099 218.26 628.016 177.73 601.486C137.31 575.027 138.044 529.892 97.8932 519.2C57.488 508.441 19.4265 502.726 16.0993 495.649Z" fill="#b1935d" fill-rule="nonzero" opacity="1" stroke="none" vectornator:layerName="Polígono 1"/>
</g>
<g clip-path="url(#ArtboardFrame)" id="Capa-1" vectornator:layerName="Capa 1">
<path d="M130.005 399.398C130.005 399.398 80.1519 401.628 49.1503 386.628C26.8193 375.822 14.021 355.475 6.20805 331.397C-1.2481 308.42 24.7799 294.515 49.3206 300.572C59.544 303.095 85.969 311.174 99.8072 329.91C119.187 356.148 130.005 399.398 130.005 399.398Z" fill="#6e9944" fill-rule="nonzero" opacity="1" stroke="none" vectornator:layerName="Polígono 19"/>
<path d="M667.066 253.395C667.066 253.395 716.959 254.396 746.925 271.372C768.509 283.601 779.963 304.734 786.201 329.267C792.154 352.679 765.281 364.87 741.184 357.237C731.145 354.057 705.299 344.284 692.702 324.692C675.062 297.254 667.066 253.395 667.066 253.395Z" fill="#6e9944" fill-rule="nonzero" opacity="1" stroke="none" vectornator:layerName="Polígono 3"/>
<path d="M136.529 114.003C136.529 114.003 159.077 158.521 158.163 192.949C157.505 217.748 144.227 237.786 125.498 254.815C107.625 271.066 84.2405 253.067 79.6619 228.208C77.7545 217.852 74.2434 190.443 85.6245 170.121C101.563 141.661 136.529 114.003 136.529 114.003Z" fill="#6e9944" fill-rule="nonzero" opacity="1" stroke="none" vectornator:layerName="Polígono 20"/>
<path d="M707.427 514.925C707.427 514.925 687.807 469.041 690.948 434.744C693.211 410.04 707.758 390.904 727.55 375.123C746.438 360.063 768.608 379.538 771.567 404.641C772.8 415.099 774.53 442.678 761.857 462.22C744.11 489.589 707.427 514.925 707.427 514.925Z" fill="#6e9944" fill-rule="nonzero" opacity="1" stroke="none" vectornator:layerName="Polígono 6"/>
<path d="M255.533-74.7869C255.533-74.7869 262.448-37.7443 254.494-12.9841C248.765 4.85121 234.897 16.5628 217.716 24.9392C201.32 32.9331 188.183 14.9344 190.129-4.05332C190.939-11.9634 194.199-32.573 206.752-44.8925C224.332-62.1453 255.533-74.7869 255.533-74.7869Z" fill="#6e9944" fill-rule="nonzero" opacity="1" stroke="none" vectornator:layerName="Polígono 21"/>
<path d="M511.105 718.459C511.105 718.459 506.602 681.046 516.142 656.853C523.014 639.426 537.611 628.637 555.298 621.39C572.178 614.474 584.122 633.286 580.951 652.108C579.63 659.949 575.043 680.304 561.719 691.785C543.059 707.863 511.105 718.459 511.105 718.459Z" fill="#6e9944" fill-rule="nonzero" opacity="1" stroke="none" vectornator:layerName="Polígono 11"/>
<path d="M668.805 674.26C668.805 674.26 631.792 681.335 606.998 673.489C589.138 667.838 577.366 654.021 568.915 636.876C560.85 620.515 578.792 607.299 597.788 609.163C605.701 609.939 626.325 613.11 638.699 625.609C656.028 643.114 668.805 674.26 668.805 674.26Z" fill="#6e9944" fill-rule="nonzero" opacity="1" stroke="none" vectornator:layerName="Polígono 16"/>
<path d="M-36.1627 167.92C-36.1627 167.92 13.2387 174.977 40.9191 195.469C60.8578 210.23 69.659 232.598 72.8695 257.707C75.9334 281.669 47.7775 290.504 24.7866 279.999C15.2088 275.623-9.25861 262.782-19.3807 241.804C-33.5561 212.426-36.1627 167.92-36.1627 167.92Z" fill="#6e9944" fill-rule="nonzero" opacity="1" stroke="none" vectornator:layerName="Polígono 23"/>
<path d="M681.475 543.977C681.475 543.977 632.635 533.737 606.339 511.496C587.397 495.475 580.063 472.584 578.484 447.32C576.978 423.21 605.647 416.216 627.91 428.187C637.184 433.174 660.769 447.573 669.512 469.162C681.755 499.396 681.475 543.977 681.475 543.977Z" fill="#6e9944" fill-rule="nonzero" opacity="1" stroke="none" vectornator:layerName="Polígono 7"/>
<path d="M370.095 56.0238C370.095 56.0238 347.666 100.602 319.423 120.311C299.078 134.508 275.071 135.723 250.248 130.767C226.559 126.036 227.155 96.5327 244.438 78.0869C251.637 70.4025 271.605 51.3017 294.715 48.3909C327.078 44.3145 370.095 56.0238 370.095 56.0238Z" fill="#6e9944" fill-rule="nonzero" opacity="1" stroke="none" vectornator:layerName="Polígono 24"/>
<path d="M405.251 580.506C405.251 580.506 430.519 537.473 459.979 519.634C481.2 506.784 505.235 507.125 529.685 513.679C553.018 519.932 550.514 549.336 532.073 566.624C524.391 573.826 503.229 591.594 479.979 593.003C447.42 594.976 405.251 580.506 405.251 580.506Z" fill="#6e9944" fill-rule="nonzero" opacity="1" stroke="none" vectornator:layerName="Polígono 14"/>
<path d="M371.259 246.092C371.259 246.092 324.702 264.056 290.54 259.69C265.932 256.545 247.329 241.322 232.267 220.978C217.892 201.563 238.149 180.104 263.342 178.045C273.837 177.187 301.46 176.446 320.537 189.81C347.252 208.526 371.259 246.092 371.259 246.092Z" fill="#6e9944" fill-rule="nonzero" opacity="1" stroke="none" vectornator:layerName="Polígono 25"/>
<path d="M416.393 390.761C416.393 390.761 464.016 375.848 497.824 382.417C522.176 387.149 539.755 403.544 553.469 424.821C566.556 445.125 544.953 465.228 519.679 465.652C509.151 465.828 481.538 464.78 463.366 450.209C437.918 429.803 416.393 390.761 416.393 390.761Z" fill="#6e9944" fill-rule="nonzero" opacity="1" stroke="none" vectornator:layerName="Polígono 17"/>
<path d="M283.384 354.681C283.384 354.681 226.313 362.512 189.092 348.544C162.28 338.483 145.419 316.445 133.894 289.594C122.895 263.969 151.345 245.235 180.195 249.604C192.213 251.425 223.443 257.92 241.33 277.995C266.379 306.108 283.384 354.681 283.384 354.681Z" fill="#6e9944" fill-rule="nonzero" opacity="1" stroke="none" vectornator:layerName="Polígono 27"/>
<path d="M511.114 288.089C511.114 288.089 568.572 283.968 604.811 300.317C630.915 312.093 646.315 335.175 656.077 362.717C665.394 389 635.791 405.853 607.285 399.625C595.409 397.03 564.666 388.527 548.116 367.337C524.939 337.661 511.114 288.089 511.114 288.089Z" fill="#6e9944" fill-rule="nonzero" opacity="1" stroke="none" vectornator:layerName="Polígono 18"/>
</g>
<g clip-path="url(#ArtboardFrame)" id="Capa-3" vectornator:layerName="Capa 3">
<path d="M665.962 64.1818C665.962 64.1818 646.636 55.9569 637.6 44.6228C631.092 36.4586 629.937 26.4078 631.353 15.8486C632.705 5.77169 645.113 5.23059 653.324 11.9948C656.745 14.8127 665.303 22.6872 667.146 32.3156C669.726 45.7996 665.962 64.1818 665.962 64.1818Z" fill="#6e9944" fill-rule="nonzero" opacity="1" stroke="none" vectornator:layerName="Polígono 22"/>
<path d="M198.068 546.784C198.068 546.784 217.587 554.537 226.896 565.648C233.601 573.652 235 583.672 233.841 594.262C232.734 604.369 220.343 605.212 211.97 598.649C208.482 595.915 199.735 588.251 197.659 578.67C194.751 565.253 198.068 546.784 198.068 546.784Z" fill="#6e9944" fill-rule="nonzero" opacity="1" stroke="none" vectornator:layerName="Polígono 15"/>
<path d="M632.344-52.176C632.344-52.176 638.769-32.1797 636.109-17.9306C634.194-7.66676 627.348-0.217456 618.436 5.62042C609.932 11.1916 601.404 2.16209 601.147-8.47337C601.04-12.904 601.395-24.5285 607.471-32.2216C615.98-42.9954 632.344-52.176 632.344-52.176Z" fill="#6e9944" fill-rule="nonzero" opacity="1" stroke="none" vectornator:layerName="Polígono 23"/>
<path d="M234.503 662.291C234.503 662.291 227.594 642.457 229.907 628.147C231.572 617.84 238.235 610.226 247.002 604.174C255.369 598.397 264.113 607.217 264.629 617.843C264.844 622.27 264.771 633.9 258.884 641.738C250.639 652.715 234.503 662.291 234.503 662.291Z" fill="#6e9944" fill-rule="nonzero" opacity="1" stroke="none" vectornator:layerName="Polígono 16"/>
<path d="M811.83 42.3153C811.83 42.3153 796.465 65.5005 779.53 74.5374C767.331 81.0469 753.964 80.1298 740.555 75.7428C727.758 71.5562 730.042 55.2678 740.828 46.2041C745.321 42.4282 757.637 33.1797 770.619 33.0992C788.799 32.9865 811.83 42.3153 811.83 42.3153Z" fill="#6e9944" fill-rule="nonzero" opacity="1" stroke="none" vectornator:layerName="Polígono 24"/>
<path d="M52.7736 572.189C52.7736 572.189 67.5705 548.637 84.2815 539.192C96.3188 532.388 109.704 532.98 123.215 537.039C136.11 540.914 134.223 557.253 123.661 566.576C119.26 570.46 107.173 580.005 94.197 580.401C76.0245 580.956 52.7736 572.189 52.7736 572.189Z" fill="#6e9944" fill-rule="nonzero" opacity="1" stroke="none" vectornator:layerName="Polígono 17"/>
<path d="M785.589 188.272C785.589 188.272 765.398 169.142 759.414 150.903C755.103 137.765 758.31 124.756 764.941 112.303C771.27 100.419 786.921 105.475 793.991 117.661C796.937 122.738 803.925 136.463 801.768 149.265C798.746 167.193 785.589 188.272 785.589 188.272Z" fill="#6e9944" fill-rule="nonzero" opacity="1" stroke="none" vectornator:layerName="Polígono 25"/>
<path d="M75.4605 425.638C75.4605 425.638 96.1107 444.271 102.536 462.36C107.164 475.389 104.275 488.472 97.948 501.082C91.9099 513.117 76.1404 508.443 68.7764 496.432C65.7087 491.428 58.3889 477.877 60.2345 465.027C62.8192 447.031 75.4605 425.638 75.4605 425.638Z" fill="#6e9944" fill-rule="nonzero" opacity="1" stroke="none" vectornator:layerName="Polígono 18"/>
<path d="M762.209-30.5532C762.209-30.5532 754.23-3.90793 740.644 9.65306C730.858 19.4213 717.8 22.421 703.695 22.1124C690.234 21.8179 687.695 5.56742 695.388-6.23542C698.592-11.1524 707.696-23.5756 720.096-27.4185C737.462-32.8002 762.209-30.5532 762.209-30.5532Z" fill="#6e9944" fill-rule="nonzero" opacity="1" stroke="none" vectornator:layerName="Polígono 26"/>
<path d="M104.151 643.83C104.151 643.83 111.48 616.999 124.732 603.112C134.278 593.109 147.259 589.793 161.368 589.758C174.832 589.726 177.766 605.91 170.362 617.896C167.277 622.889 158.479 635.53 146.175 639.673C128.945 645.475 104.151 643.83 104.151 643.83Z" fill="#6e9944" fill-rule="nonzero" opacity="1" stroke="none" vectornator:layerName="Polígono 19"/>
<path d="M715.605 162.055C715.605 162.055 702.642 137.446 702.845 118.252C702.99 104.425 710.211 93.14 720.497 83.4828C730.313 74.2666 743.505 84.0892 746.279 97.9021C747.434 103.656 749.635 118.9 743.474 130.327C734.845 146.33 715.605 162.055 715.605 162.055Z" fill="#6e9944" fill-rule="nonzero" opacity="1" stroke="none" vectornator:layerName="Polígono 27"/>
<path d="M146.061 450.146C146.061 450.146 159.618 474.433 159.882 493.627C160.072 507.453 153.127 518.91 143.08 528.814C133.491 538.266 120.063 528.767 116.955 515.026C115.66 509.301 113.089 494.116 118.971 482.542C127.209 466.335 146.061 450.146 146.061 450.146Z" fill="#6e9944" fill-rule="nonzero" opacity="1" stroke="none" vectornator:layerName="Polígono 20"/>
<path d="M932.754 106.927C932.754 106.927 910.448 130.021 889.328 136.725C874.115 141.555 859.135 137.709 844.834 129.916C831.187 122.478 837.197 104.468 851.342 96.4426C857.235 93.0993 873.155 85.1853 887.908 87.8179C908.569 91.5046 932.754 106.927 932.754 106.927Z" fill="#6e9944" fill-rule="nonzero" opacity="1" stroke="none" vectornator:layerName="Polígono 28"/>
<path d="M-69.6848 510.535C-69.6848 510.535-47.9466 486.906-26.9956 479.69C-11.9042 474.493 3.16503 477.973 17.6509 485.417C31.4751 492.52 25.9046 510.671 11.9585 519.038C6.14868 522.523-9.57444 530.822-24.3872 528.549C-45.1315 525.365-69.6848 510.535-69.6848 510.535Z" fill="#6e9944" fill-rule="nonzero" opacity="1" stroke="none" vectornator:layerName="Polígono 21"/>
</g>
<g id="Capa-5" vectornator:layerName="Capa 5"/>
</svg>
