<?xml version="1.0" encoding="UTF-8" standalone="no"?>
<!DOCTYPE svg PUBLIC "-//W3C//DTD SVG 1.1//EN" "http://www.w3.org/Graphics/SVG/1.1/DTD/svg11.dtd">
<!-- Created with Vectornator (http://vectornator.io/) -->
<svg height="100%" stroke-miterlimit="10" style="fill-rule:nonzero;clip-rule:evenodd;stroke-linecap:round;stroke-linejoin:round;" version="1.1" viewBox="0 0 841.995 595.35" width="100%" xml:space="preserve" xmlns="http://www.w3.org/2000/svg" xmlns:vectornator="http://vectornator.io" xmlns:xlink="http://www.w3.org/1999/xlink">
<defs/>
<g id="Capa-1" vectornator:layerName="Capa 1">
<g fill="#1f2937" opacity="1" stroke="none" vectornator:layerName="Curva 1">
<path d="M202.08 293.462L156.846 288.999L157.436 283.013L179.869 285.226L159.653 260.55L160.453 252.435L176.909 273.22L205.77 256.065L204.991 263.964L180.507 277.812L186.996 285.93L202.671 287.476L202.08 293.462Z"/>
<path d="M190.658 250.341C184.793 248.674 180.912 245.809 179.015 241.746C177.443 238.355 177.214 234.701 178.327 230.784C179.564 226.43 182.002 223.276 185.641 221.323C189.28 219.37 193.614 219.109 198.645 220.538C202.721 221.697 205.753 223.219 207.742 225.106C209.731 226.993 211.039 229.288 211.668 231.992C212.296 234.695 212.218 237.429 211.432 240.193C210.172 244.627 207.732 247.807 204.112 249.733C200.491 251.658 196.007 251.861 190.658 250.341ZM192.226 244.824C196.283 245.976 199.571 245.955 202.092 244.759C204.613 243.563 206.255 241.623 207.018 238.938C207.775 236.274 207.391 233.769 205.866 231.423C204.341 229.077 201.501 227.313 197.345 226.132C193.428 225.019 190.208 225.065 187.684 226.271C185.16 227.477 183.522 229.403 182.771 232.047C182.008 234.731 182.379 237.244 183.884 239.584C185.39 241.924 188.17 243.671 192.226 244.824Z"/>
<path d="M222.572 198.653C223.281 201.271 223.555 203.6 223.395 205.638C223.235 207.676 222.688 209.686 221.755 211.668C220.214 214.941 218.23 217.08 215.803 218.085C213.376 219.089 210.919 219.006 208.432 217.835C206.974 217.148 205.798 216.189 204.904 214.957C204.01 213.725 203.452 212.4 203.229 210.981C203.006 209.562 203.025 208.091 203.285 206.569C203.49 205.454 203.942 203.839 204.641 201.724C206.075 197.418 206.908 194.144 207.142 191.901C206.459 191.556 206.024 191.34 205.837 191.252C203.78 190.283 202.106 190.077 200.815 190.635C199.067 191.388 197.594 193.036 196.396 195.579C195.278 197.954 194.868 199.904 195.168 201.427C195.467 202.95 196.546 204.481 198.403 206.018L195.405 210.638C193.503 209.194 192.145 207.652 191.33 206.011C190.514 204.37 190.214 202.413 190.428 200.138C190.643 197.862 191.354 195.444 192.56 192.882C193.758 190.339 195.03 188.413 196.377 187.105C197.724 185.798 199.027 184.983 200.286 184.662C201.546 184.341 202.938 184.357 204.462 184.71C205.402 184.946 206.994 185.593 209.238 186.65L215.97 189.82C220.664 192.031 223.683 193.321 225.028 193.692C226.373 194.062 227.766 194.198 229.206 194.1L226.722 199.373C225.429 199.404 224.045 199.164 222.572 198.653ZM211.097 193.763C210.982 195.948 210.324 198.997 209.121 202.908C208.443 205.125 208.088 206.752 208.057 207.788C208.026 208.824 208.26 209.746 208.76 210.552C209.26 211.359 209.949 211.969 210.828 212.383C212.175 213.017 213.537 213.036 214.914 212.44C216.292 211.843 217.443 210.563 218.368 208.599C219.284 206.655 219.673 204.724 219.535 202.809C219.398 200.893 218.758 199.233 217.615 197.826C216.73 196.747 215.174 195.683 212.949 194.635L211.097 193.763Z"/>
<path d="M232.628 189.197L193.939 165.337L196.868 160.586L235.557 184.446L232.628 189.197Z"/>
<path d="M249.92 157.865C250.022 160.576 249.766 162.906 249.152 164.856C248.537 166.806 247.552 168.642 246.197 170.363C243.959 173.205 241.545 174.843 238.955 175.277C236.364 175.71 233.989 175.077 231.829 173.376C230.562 172.379 229.632 171.179 229.038 169.778C228.445 168.377 228.199 166.96 228.3 165.527C228.402 164.095 228.751 162.666 229.347 161.241C229.797 160.201 230.601 158.729 231.758 156.825C234.123 152.952 235.672 149.949 236.404 147.816C235.816 147.326 235.44 147.018 235.278 146.89C233.492 145.483 231.907 144.907 230.524 145.16C228.651 145.5 226.845 146.775 225.106 148.984C223.482 151.047 222.645 152.854 222.594 154.405C222.543 155.957 223.25 157.691 224.714 159.606L220.754 163.434C219.226 161.599 218.249 159.791 217.823 158.009C217.398 156.227 217.545 154.252 218.266 152.083C218.987 149.915 220.223 147.718 221.975 145.493C223.714 143.284 225.386 141.694 226.993 140.722C228.599 139.751 230.052 139.251 231.351 139.221C232.651 139.192 234.003 139.52 235.41 140.206C236.272 140.648 237.678 141.637 239.627 143.171L245.473 147.774C249.55 150.983 252.202 152.92 253.429 153.583C254.656 154.247 255.982 154.693 257.408 154.92L253.802 159.5C252.535 159.239 251.241 158.694 249.92 157.865ZM239.839 150.52C239.236 152.623 237.908 155.445 235.857 158.987C234.697 160.994 233.986 162.499 233.723 163.502C233.459 164.505 233.48 165.455 233.786 166.354C234.092 167.252 234.626 168.002 235.39 168.603C236.559 169.523 237.882 169.848 239.358 169.576C240.835 169.305 242.244 168.317 243.587 166.611C244.917 164.922 245.73 163.129 246.027 161.232C246.323 159.334 246.073 157.572 245.276 155.945C244.656 154.694 243.38 153.308 241.447 151.786L239.839 150.52Z"/>
<path d="M291.357 142.008C286.505 140.987 281.596 139.154 276.629 136.509C271.662 133.863 267.396 130.394 263.829 126.101C260.685 122.318 258.285 118.184 256.629 113.701C254.718 108.49 253.598 102.647 253.271 96.1733L256.348 93.6171C257.172 98.5224 257.862 101.94 258.417 103.87C259.271 106.87 260.41 109.794 261.835 112.641C263.622 116.182 265.764 119.455 268.26 122.459C274.615 130.106 283.339 135.77 294.434 139.452L291.357 142.008Z"/>
<path d="M290.558 125.365L272.973 97.5257L277.22 94.8433L279.72 98.8017C279.833 94.4518 281.821 91.0571 285.683 88.6176C287.361 87.5578 289.094 86.8851 290.881 86.5995C292.669 86.3138 294.221 86.4395 295.539 86.9766C296.856 87.5137 298.079 88.3668 299.209 89.5359C299.936 90.2993 300.989 91.7733 302.369 93.9578L313.181 111.076L308.462 114.056L297.766 97.1218C296.552 95.1994 295.46 93.8779 294.492 93.1572C293.523 92.4366 292.392 92.0875 291.098 92.1101C289.804 92.1327 288.528 92.5414 287.27 93.3362C285.26 94.6057 283.929 96.3391 283.275 98.5366C282.622 100.734 283.421 103.615 285.673 107.181L295.277 122.385L290.558 125.365Z"/>
<path d="M311.729 93.1043C309.35 87.4897 309.148 82.6698 311.124 78.6446C312.78 75.294 315.483 72.8243 319.232 71.2356C323.4 69.4695 327.386 69.3916 331.189 71.0018C334.991 72.612 337.913 75.8248 339.953 80.64C341.606 84.5417 342.322 87.8587 342.099 90.591C341.876 93.3232 340.908 95.7817 339.196 97.9664C337.484 100.151 335.305 101.804 332.659 102.925C328.415 104.723 324.408 104.816 320.638 103.203C316.868 101.59 313.898 98.2241 311.729 93.1043ZM317.01 90.8664C318.655 94.7491 320.734 97.2974 323.246 98.5115C325.759 99.7256 328.3 99.7883 330.869 98.6996C333.42 97.619 335.13 95.7491 336.002 93.0901C336.873 90.431 336.466 87.1126 334.781 83.1348C333.192 79.3854 331.137 76.9057 328.615 75.6956C326.093 74.4856 323.566 74.4168 321.035 75.4894C318.465 76.5781 316.741 78.4424 315.862 81.0824C314.982 83.7225 315.365 86.9838 317.01 90.8664Z"/>
<path d="M362.51 86.7688L364.644 91.2854C363.226 92.0364 361.92 92.583 360.728 92.9249C358.781 93.4834 357.182 93.6086 355.933 93.3004C354.683 92.9922 353.696 92.3991 352.971 91.5211C352.246 90.6431 351.422 88.5946 350.499 85.3758L345.275 67.1655L341.341 68.294L340.144 64.1214L344.078 62.9929L341.83 55.1545L346.242 50.4054L349.413 61.4627L354.808 59.9154L356.005 64.0879L350.61 65.6353L355.919 84.1436C356.358 85.6735 356.734 86.63 357.048 87.013C357.363 87.396 357.77 87.6553 358.272 87.7911C358.773 87.9269 359.421 87.8808 360.216 87.6528C360.812 87.4818 361.577 87.1872 362.51 86.7688Z"/>
<path d="M374.918 102.881L370.99 103.635C375.191 92.726 376.354 82.3895 374.481 72.625C373.749 68.8085 372.586 65.1062 370.993 61.5181C369.719 58.6054 368.194 55.8671 366.418 53.3032C365.276 51.6281 363.057 48.8965 359.763 45.1085L363.691 44.355C368.485 48.7183 372.288 53.2926 375.1 58.0782C377.512 62.2038 379.182 66.6823 380.109 71.5138C381.16 76.9949 381.126 82.4949 380.006 88.0137C378.887 93.5324 377.191 98.4882 374.918 102.881Z"/>
<path d="M411.89 85.296L406.713 85.181L407.722 39.7376L413.302 39.8616L412.942 56.0736C415.363 53.1708 418.403 51.76 422.061 51.8412C424.086 51.8862 425.994 52.3369 427.784 53.1933C429.574 54.0498 431.036 55.2298 432.171 56.7333C433.306 58.2368 434.181 60.0395 434.796 62.1414C435.411 64.2433 435.692 66.4825 435.639 68.859C435.514 74.5007 434.022 78.8302 431.164 81.8474C428.305 84.8646 424.923 86.3298 421.018 86.243C417.133 86.1568 414.12 84.4668 411.981 81.1732L411.89 85.296ZM412.199 68.5866C412.111 72.5337 412.585 75.3975 413.621 77.1779C415.313 80.0894 417.658 81.5784 420.655 81.645C423.093 81.6991 425.225 80.6868 427.049 78.6081C428.873 76.5294 429.832 73.3924 429.925 69.1973C430.02 64.8989 429.238 61.7078 427.579 59.6241C425.919 57.5404 423.881 56.4716 421.463 56.4179C419.024 56.3638 416.893 57.3761 415.069 59.4548C413.244 61.5336 412.288 64.5775 412.199 68.5866Z"/>
<path d="M465.347 80.2428L470.887 81.9972C469.377 85.1438 467.243 87.4069 464.485 88.7868C461.727 90.1666 458.468 90.5073 454.708 89.8089C449.973 88.9293 446.489 86.7737 444.257 83.342C442.024 79.9104 441.397 75.5628 442.375 70.2991C443.386 64.8526 445.574 60.8859 448.937 58.3991C452.301 55.9122 456.218 55.0841 460.689 55.9146C465.018 56.7187 468.28 58.849 470.476 62.3055C472.672 65.7619 473.274 70.1626 472.281 75.5075C472.221 75.8327 472.12 76.3186 471.979 76.9651L447.835 72.4803C447.378 76.0746 447.878 78.9847 449.336 81.2107C450.793 83.4367 452.874 84.8008 455.577 85.3029C457.589 85.6766 459.404 85.4672 461.023 84.6747C462.642 83.8821 464.083 82.4049 465.347 80.2428ZM448.978 68.0252L467.055 71.3832C467.317 68.6146 467.006 66.4438 466.121 64.8708C464.766 62.4325 462.696 60.9548 459.912 60.4376C457.392 59.9695 455.116 60.4194 453.086 61.7872C451.055 63.155 449.686 65.2343 448.978 68.0252Z"/>
<path d="M496.651 96.9466C494.11 97.8962 491.817 98.3861 489.773 98.4164C487.729 98.4467 485.677 98.0894 483.616 97.3444C480.214 96.1146 477.9 94.3383 476.674 92.0156C475.447 89.693 475.301 87.2389 476.236 84.6535C476.784 83.1372 477.63 81.8769 478.773 80.8726C479.917 79.8683 481.184 79.1891 482.576 78.835C483.968 78.481 485.434 78.3626 486.974 78.4798C488.103 78.5802 489.753 78.88 491.924 79.3792C496.345 80.4059 499.683 80.9312 501.938 80.9553C502.217 80.2431 502.392 79.7898 502.462 79.5954C503.236 77.457 503.284 75.7713 502.609 74.5381C501.697 72.8674 499.919 71.5542 497.275 70.5984C494.806 69.7058 492.827 69.4795 491.338 69.9194C489.85 70.3592 488.426 71.5756 487.068 73.5684L482.189 71.0132C483.45 68.9853 484.859 67.489 486.417 66.5246C487.974 65.5601 489.896 65.0788 492.181 65.0807C494.466 65.0826 496.94 65.565 499.604 66.5278C502.247 67.4836 504.283 68.5712 505.71 69.7906C507.138 71.01 508.07 72.2317 508.507 73.4556C508.943 74.6795 509.057 76.067 508.848 77.6179C508.7 78.5754 508.204 80.2204 507.361 82.5531L504.831 89.5512C503.067 94.4305 502.063 97.5569 501.819 98.9304C501.575 100.304 501.569 101.703 501.802 103.128L496.32 101.146C496.169 99.8606 496.279 98.4608 496.651 96.9466ZM500.451 85.0667C498.265 85.1555 495.169 84.7834 491.162 83.9502C488.892 83.4811 487.239 83.2794 486.204 83.3449C485.17 83.4104 484.274 83.7295 483.518 84.3022C482.761 84.8749 482.218 85.6181 481.887 86.5317C481.381 87.9313 481.489 89.2892 482.211 90.6053C482.933 91.9214 484.315 92.9484 486.356 93.6863C488.378 94.4172 490.336 94.6251 492.23 94.3098C494.125 93.9946 495.719 93.2027 497.013 91.934C498.005 90.952 498.919 89.3044 499.756 86.9912L500.451 85.0667Z"/>
<path d="M507.089 106.039L522.19 76.7773L526.654 79.0808L524.364 83.5168C526.574 82.0289 528.332 81.2031 529.638 81.0395C530.943 80.8759 532.175 81.0927 533.332 81.6899C535.004 82.5525 536.428 83.9621 537.605 85.9185L533.522 89.6383C532.679 88.2963 531.652 87.3125 530.439 86.6868C529.356 86.1275 528.214 85.9512 527.014 86.1577C525.814 86.3643 524.732 86.9514 523.767 87.919C522.306 89.3981 521.035 91.1846 519.955 93.2786L512.049 108.598L507.089 106.039Z"/>
<path d="M529.132 106.31L534.181 108.702C533.191 110.704 532.949 112.591 533.455 114.362C533.962 116.133 535.265 117.735 537.365 119.167C539.483 120.611 541.348 121.251 542.961 121.087C544.574 120.924 545.776 120.261 546.568 119.1C547.278 118.058 547.385 116.93 546.887 115.715C546.535 114.874 545.319 113.282 543.239 110.938C540.44 107.778 538.6 105.442 537.718 103.927C536.837 102.413 536.434 100.875 536.511 99.3138C536.587 97.7522 537.08 96.3054 537.988 94.9733C538.815 93.7608 539.858 92.8271 541.118 92.1724C542.377 91.5176 543.718 91.1747 545.14 91.1437C546.219 91.1034 547.502 91.3218 548.991 91.7989C550.479 92.2759 551.932 92.9978 553.35 93.9643C555.484 95.4199 557.149 97.0054 558.344 98.7207C559.538 100.436 560.162 102.081 560.214 103.655C560.267 105.229 559.838 106.995 558.929 108.952L554.001 106.493C554.751 104.952 554.903 103.455 554.457 102C554.01 100.544 552.891 99.2055 551.097 97.9827C548.98 96.5387 547.23 95.8583 545.847 95.9413C544.464 96.0243 543.453 96.5354 542.812 97.4747C542.405 98.0725 542.226 98.7385 542.276 99.4729C542.314 100.224 542.623 101.036 543.205 101.908C543.549 102.393 544.639 103.712 546.474 105.864C549.142 108.959 550.932 111.223 551.843 112.658C552.754 114.092 553.215 115.589 553.228 117.148C553.24 118.708 552.711 120.273 551.639 121.845C550.591 123.382 549.156 124.523 547.334 125.27C545.511 126.016 543.501 126.184 541.304 125.774C539.107 125.364 536.941 124.432 534.806 122.976C531.271 120.565 529.077 117.994 528.226 115.262C527.374 112.53 527.676 109.546 529.132 106.31Z"/>
<path d="M572.039 134.508L576.07 130.603L588.001 142.917L583.97 146.822L572.039 134.508Z"/>
<path d="M589.765 174.966L628.929 151.895L631.982 157.077L615.9 166.551L627.892 186.908L643.974 177.434L647.027 182.617L607.863 205.688L604.81 200.505L623.27 189.631L611.278 169.274L592.818 180.148L589.765 174.966Z"/>
<path d="M622.134 232.211C619.78 230.862 617.939 229.41 616.611 227.857C615.282 226.303 614.246 224.496 613.504 222.434C612.277 219.031 612.166 216.116 613.171 213.689C614.175 211.262 615.97 209.582 618.557 208.651C620.073 208.104 621.583 207.95 623.086 208.189C624.589 208.427 625.922 208.969 627.083 209.814C628.244 210.659 629.272 211.711 630.165 212.971C630.809 213.904 631.632 215.365 632.634 217.355C634.667 221.412 636.394 224.316 637.816 226.067C638.543 225.827 639.003 225.672 639.198 225.602C641.337 224.832 642.665 223.793 643.183 222.486C643.886 220.716 643.761 218.509 642.808 215.865C641.918 213.395 640.829 211.728 639.539 210.863C638.25 209.998 636.405 209.68 634.005 209.907L632.855 204.521C635.221 204.196 637.272 204.325 639.009 204.908C640.746 205.49 642.343 206.661 643.801 208.421C645.259 210.181 646.468 212.393 647.428 215.057C648.381 217.702 648.844 219.963 648.817 221.84C648.79 223.717 648.445 225.215 647.782 226.333C647.119 227.45 646.124 228.424 644.797 229.253C643.966 229.751 642.383 230.42 640.049 231.261L633.049 233.783C628.167 235.541 625.12 236.765 623.908 237.455C622.695 238.144 621.615 239.033 620.667 240.122L618.691 234.638C619.584 233.701 620.732 232.892 622.134 232.211ZM633.703 227.549C632.238 225.923 630.547 223.303 628.63 219.687C627.541 217.641 626.641 216.24 625.93 215.486C625.218 214.731 624.401 214.246 623.477 214.03C622.553 213.813 621.634 213.87 620.72 214.199C619.32 214.703 618.344 215.654 617.792 217.05C617.241 218.446 617.333 220.165 618.068 222.207C618.797 224.229 619.888 225.869 621.34 227.125C622.792 228.382 624.42 229.103 626.222 229.288C627.612 229.425 629.463 229.076 631.778 228.242L633.703 227.549Z"/>
<path d="M622.142 246.045L654.523 240.067L655.435 245.007L650.831 245.857C654.827 247.578 657.24 250.685 658.069 255.178C658.429 257.129 658.41 258.988 658.011 260.753C657.611 262.519 656.918 263.914 655.93 264.937C654.941 265.96 653.695 266.779 652.19 267.393C651.211 267.784 649.451 268.214 646.91 268.683L627 272.359L625.986 266.871L645.683 263.234C647.919 262.821 649.552 262.299 650.581 261.668C651.61 261.037 652.354 260.116 652.814 258.907C653.274 257.697 653.369 256.361 653.099 254.897C652.667 252.56 651.553 250.679 649.755 249.256C647.958 247.832 644.986 247.503 640.84 248.269L623.155 251.534L622.142 246.045Z"/>
<path d="M625.046 279.127L624.355 284.568C622.686 284.831 621.48 285.487 620.737 286.537C619.733 287.943 619.257 289.845 619.307 292.243C619.362 294.826 619.921 296.809 620.984 298.193C622.047 299.576 623.514 300.496 625.385 300.952C626.527 301.218 628.917 301.301 632.554 301.203C629.63 298.826 628.129 295.818 628.052 292.181C627.956 287.655 629.514 284.118 632.727 281.569C635.939 279.02 639.829 277.697 644.396 277.6C647.538 277.533 650.448 278.04 653.128 279.12C655.807 280.201 657.893 281.805 659.386 283.934C660.878 286.063 661.655 288.584 661.717 291.498C661.8 295.383 660.297 298.62 657.209 301.208L661.177 301.124L661.286 306.269L632.829 306.873C627.704 306.982 624.061 306.537 621.9 305.539C619.739 304.54 618.014 302.923 616.726 300.686C615.438 298.45 614.759 295.678 614.689 292.372C614.606 288.445 615.422 285.254 617.138 282.799C618.853 280.343 621.489 279.119 625.046 279.127ZM644.921 283.326C640.602 283.418 637.468 284.342 635.521 286.099C633.573 287.857 632.627 290.027 632.682 292.61C632.736 295.173 633.768 297.301 635.779 298.995C637.789 300.689 640.902 301.492 645.118 301.402C649.148 301.317 652.167 300.359 654.175 298.528C656.183 296.697 657.16 294.52 657.107 291.999C657.054 289.519 656.002 287.433 653.95 285.739C651.899 284.046 648.889 283.242 644.921 283.326Z"/>
<path d="M666.402 318.095L672.795 318.669L672.296 324.228L665.903 323.654L666.402 318.095ZM627.522 314.604L660.319 317.549L659.82 323.108L627.023 320.163L627.522 314.604Z"/>
<path d="M626.437 328.345L658.68 335.024L657.661 339.943L653.077 338.993C656.128 342.095 657.191 345.883 656.264 350.356C655.862 352.299 655.142 354.013 654.107 355.498C653.071 356.982 651.902 358.012 650.601 358.587C649.3 359.162 647.836 359.45 646.211 359.451C645.157 359.443 643.365 359.178 640.835 358.653L621.009 354.546L622.141 349.081L641.754 353.144C643.981 353.606 645.69 353.738 646.881 353.542C648.072 353.345 649.109 352.773 649.991 351.827C650.873 350.88 651.465 349.678 651.767 348.221C652.249 345.893 651.926 343.731 650.799 341.735C649.672 339.739 647.043 338.313 642.914 337.458L625.305 333.81L626.437 328.345Z"/>
<path d="M656.022 373.852L662.179 375.874L660.312 381.559L655.451 379.963C652.82 379.098 651.025 378.172 650.066 377.182C648.752 375.815 647.987 374.106 647.768 372.055L650.286 371.445C650.369 372.648 650.792 373.662 651.554 374.489C652.316 375.316 653.502 376.026 655.113 376.621L656.022 373.852Z"/>
<path d="M600.149 411.93C599.64 409.265 599.543 406.923 599.857 404.902C600.171 402.882 600.868 400.919 601.949 399.014C603.734 395.867 605.874 393.885 608.37 393.066C610.866 392.248 613.309 392.517 615.701 393.873C617.103 394.669 618.203 395.715 619.001 397.011C619.799 398.307 620.255 399.67 620.37 401.102C620.485 402.533 620.355 403.999 619.98 405.497C619.692 406.593 619.119 408.169 618.261 410.225C616.506 414.41 615.426 417.612 615.023 419.831C615.678 420.226 616.096 420.475 616.276 420.577C618.253 421.699 619.907 422.03 621.236 421.572C623.036 420.954 624.63 419.422 626.017 416.977C627.312 414.693 627.868 412.781 627.685 411.239C627.502 409.697 626.542 408.09 624.806 406.416L628.145 402.036C629.932 403.62 631.17 405.261 631.859 406.959C632.548 408.656 632.699 410.631 632.313 412.883C631.926 415.136 631.035 417.494 629.638 419.957C628.251 422.402 626.836 424.226 625.394 425.428C623.952 426.63 622.591 427.343 621.311 427.568C620.031 427.792 618.644 427.671 617.151 427.204C616.232 426.897 614.694 426.132 612.536 424.908L606.063 421.237C601.55 418.677 598.637 417.162 597.324 416.69C596.011 416.219 594.633 415.978 593.19 415.967L596.065 410.897C597.358 410.965 598.719 411.309 600.149 411.93ZM611.22 417.674C611.501 415.504 612.388 412.515 613.884 408.705C614.728 406.546 615.205 404.951 615.314 403.92C615.424 402.889 615.26 401.952 614.822 401.11C614.385 400.268 613.744 399.607 612.899 399.128C611.604 398.394 610.248 398.272 608.829 398.762C607.41 399.253 606.165 400.442 605.094 402.33C604.034 404.2 603.5 406.095 603.492 408.015C603.484 409.936 603.996 411.64 605.029 413.129C605.83 414.273 607.301 415.451 609.44 416.665L611.22 417.674Z"/>
<path d="M589.433 420.698L615.755 440.482L612.737 444.497L608.747 441.498C609.844 443.926 610.364 445.797 610.307 447.111C610.249 448.426 609.83 449.604 609.047 450.645C607.917 452.148 606.289 453.317 604.163 454.15L601.179 449.502C602.643 448.896 603.785 448.047 604.605 446.957C605.337 445.982 605.702 444.886 605.7 443.668C605.697 442.451 605.299 441.285 604.506 440.173C603.293 438.485 601.744 436.933 599.86 435.517L586.08 425.159L589.433 420.698Z"/>
<path d="M590.147 447.276C594.507 451.54 596.551 455.909 596.279 460.385C596.043 464.115 594.502 467.436 591.655 470.347C588.49 473.584 584.842 475.192 580.713 475.173C576.583 475.153 572.649 473.315 568.91 469.659C565.88 466.696 563.941 463.911 563.094 461.304C562.246 458.697 562.191 456.056 562.928 453.38C563.666 450.704 565.039 448.339 567.048 446.285C570.271 442.989 573.932 441.359 578.033 441.393C582.133 441.428 586.171 443.389 590.147 447.276ZM586.136 451.377C583.122 448.429 580.221 446.879 577.435 446.728C574.648 446.576 572.28 447.498 570.329 449.493C568.392 451.473 567.535 453.858 567.756 456.648C567.977 459.437 569.632 462.342 572.721 465.363C575.632 468.21 578.485 469.705 581.278 469.849C584.072 469.994 586.429 469.083 588.351 467.117C590.302 465.122 591.175 462.737 590.968 459.962C590.762 457.187 589.151 454.326 586.136 451.377Z"/>
<path d="M534.985 474.308L537.855 478.201C537.71 473.685 539.409 470.121 542.953 467.508C544.517 466.355 546.198 465.578 547.995 465.178C549.793 464.777 551.355 464.787 552.68 465.21C554.006 465.632 555.287 466.402 556.522 467.52C557.355 468.267 558.477 469.597 559.887 471.51L571.995 487.932L567.502 491.244L556.665 476.544C554.935 474.198 553.679 472.685 552.894 472.005C551.741 471.032 550.458 470.546 549.046 470.547C547.634 470.548 546.254 471.045 544.907 472.039C543.559 473.032 542.549 474.31 541.877 475.871C541.205 477.433 541.062 478.989 541.448 480.541C541.834 482.092 542.862 483.999 544.53 486.262L554.999 500.462L550.507 503.774L530.967 477.27L534.985 474.308Z"/>
<path d="M524.211 481.491L539.218 510.801L534.747 513.09L532.613 508.923C532.109 513.245 529.824 516.447 525.758 518.529C523.992 519.433 522.206 519.947 520.4 520.071C518.593 520.195 517.059 519.93 515.795 519.276C514.532 518.623 513.39 517.663 512.37 516.397C511.715 515.571 510.799 514.008 509.621 511.708L500.393 493.687L505.361 491.143L514.49 508.972C515.526 510.995 516.494 512.41 517.394 513.215C518.294 514.02 519.389 514.469 520.68 514.563C521.97 514.657 523.278 514.365 524.602 513.687C526.718 512.603 528.201 510.997 529.049 508.867C529.898 506.737 529.361 503.795 527.439 500.042L519.243 484.035L524.211 481.491Z"/>
<path d="M472.869 503.19L474.137 507.147C475.129 503.4 477.554 500.908 481.412 499.672C483.912 498.87 486.431 498.823 488.969 499.529C491.507 500.235 493.747 501.639 495.69 503.74C497.634 505.842 499.119 508.497 500.148 511.705C501.151 514.835 501.539 517.842 501.313 520.725C501.086 523.609 500.147 526.064 498.496 528.091C496.845 530.118 494.73 531.544 492.151 532.371C490.261 532.976 488.451 533.117 486.719 532.793C484.987 532.469 483.454 531.815 482.118 530.832L487.096 546.363L481.81 548.057L467.939 504.771L472.869 503.19ZM494.685 513.456C493.398 509.44 491.59 506.709 489.26 505.264C486.93 503.818 484.613 503.464 482.31 504.202C479.988 504.947 478.319 506.529 477.303 508.949C476.288 511.369 476.405 514.528 477.654 518.425C479.029 522.716 480.865 525.601 483.162 527.079C485.459 528.557 487.818 528.908 490.239 528.132C492.601 527.375 494.266 525.778 495.232 523.341C496.199 520.904 496.016 517.609 494.685 513.456Z"/>
<path d="M445.677 519.114L440.236 520.381C439.766 518.197 438.782 516.569 437.284 515.497C435.786 514.425 433.769 513.981 431.234 514.166C428.677 514.352 426.819 515.011 425.657 516.142C424.496 517.273 423.967 518.54 424.069 519.942C424.161 521.199 424.779 522.149 425.924 522.791C426.723 523.23 428.666 523.721 431.752 524.263C435.909 524.996 438.803 525.682 440.435 526.319C442.067 526.957 443.339 527.911 444.25 529.181C445.161 530.452 445.675 531.891 445.792 533.499C445.899 534.963 445.663 536.343 445.084 537.639C444.504 538.935 443.668 540.037 442.573 540.946C441.754 541.648 440.613 542.275 439.151 542.827C437.688 543.38 436.102 543.718 434.391 543.843C431.814 544.03 429.524 543.824 427.522 543.224C425.519 542.624 424.008 541.723 422.988 540.523C421.968 539.323 421.205 537.674 420.7 535.576L426.089 534.437C426.459 536.11 427.272 537.377 428.526 538.239C429.781 539.101 431.49 539.453 433.655 539.295C436.211 539.109 438.005 538.553 439.036 537.628C440.067 536.704 440.542 535.674 440.459 534.54C440.406 533.819 440.132 533.186 439.637 532.642C439.14 532.077 438.392 531.634 437.395 531.313C436.823 531.147 435.15 530.792 432.374 530.249C428.36 529.484 425.55 528.823 423.945 528.267C422.34 527.71 421.047 526.825 420.068 525.611C419.088 524.398 418.529 522.843 418.391 520.946C418.256 519.091 418.67 517.304 419.632 515.586C420.595 513.868 422.065 512.487 424.04 511.441C426.016 510.396 428.292 509.779 430.869 509.591C435.137 509.28 438.454 509.93 440.82 511.54C443.186 513.15 444.805 515.675 445.677 519.114Z"/>
<path d="M410.571 549.898L410.379 556.313L404.8 556.146L404.992 549.731L410.571 549.898ZM411.741 510.879L410.754 543.793L405.175 543.625L406.162 510.712L411.741 510.879Z"/>
<path d="M397.957 510.614L393.236 543.202L388.265 542.481L388.936 537.848C386.024 541.081 382.307 542.37 377.786 541.715C375.822 541.431 374.068 540.816 372.524 539.872C370.979 538.927 369.881 537.823 369.228 536.559C368.576 535.295 368.2 533.851 368.101 532.229C368.045 531.176 368.202 529.371 368.573 526.814L371.476 506.777L376.999 507.577L374.127 527.4C373.801 529.65 373.772 531.364 374.04 532.541C374.308 533.718 374.941 534.718 375.939 535.542C376.937 536.365 378.173 536.884 379.646 537.097C381.998 537.438 384.137 536.986 386.061 535.74C387.986 534.494 389.251 531.784 389.855 527.611L392.434 509.814L397.957 510.614Z"/>
<path d="M339.839 510.163L334.803 507.868C336.489 504.429 338.827 502.05 341.817 500.732C344.807 499.413 348.021 499.283 351.458 500.341C355.765 501.666 358.794 504.139 360.546 507.76C362.297 511.381 362.364 515.819 360.747 521.074C359.702 524.472 358.224 527.272 356.314 529.474C354.403 531.676 352.101 533.06 349.407 533.626C346.714 534.192 344.014 534.059 341.307 533.226C337.889 532.174 335.36 530.45 333.718 528.053C332.077 525.655 331.439 522.772 331.806 519.403L337.238 520.198C337.081 522.464 337.466 524.324 338.393 525.776C339.319 527.229 340.671 528.229 342.449 528.776C345.136 529.603 347.615 529.312 349.887 527.902C352.159 526.493 353.937 523.704 355.219 519.535C356.52 515.307 356.656 511.986 355.625 509.571C354.595 507.156 352.776 505.547 350.168 504.745C348.074 504.101 346.128 504.205 344.33 505.057C342.532 505.91 341.035 507.612 339.839 510.163Z"/>
<path d="M309.493 495.046L304.622 491.877C306.916 489.247 309.576 487.635 312.602 487.041C315.629 486.447 318.86 486.987 322.298 488.663C326.627 490.774 329.41 493.781 330.646 497.683C331.882 501.586 331.327 505.943 328.981 510.756C326.553 515.735 323.387 518.975 319.483 520.475C315.578 521.974 311.582 521.728 307.494 519.735C303.537 517.805 300.96 514.882 299.766 510.965C298.571 507.048 299.164 502.647 301.547 497.76C301.692 497.463 301.918 497.021 302.227 496.436L324.3 507.197C325.699 503.855 325.994 500.917 325.182 498.383C324.371 495.849 322.73 493.979 320.259 492.774C318.419 491.878 316.614 491.595 314.842 491.927C313.071 492.259 311.288 493.299 309.493 495.046ZM322.01 511.186L305.483 503.129C304.493 505.727 304.214 507.902 304.647 509.654C305.303 512.366 306.904 514.342 309.449 515.583C311.753 516.706 314.066 516.879 316.388 516.103C318.71 515.326 320.584 513.687 322.01 511.186Z"/>
<path d="M264.285 456.066L267.734 451.958L290.744 471.277C289.912 472.332 288.915 473.182 287.754 473.826C285.852 474.902 283.618 475.658 281.052 476.095C278.486 476.531 275.146 476.723 271.034 476.671C264.645 476.597 260.025 476.909 257.173 477.605C254.322 478.301 252.218 479.457 250.862 481.071C249.44 482.765 248.846 484.702 249.08 486.883C249.315 489.063 250.405 490.971 252.352 492.605C254.411 494.333 256.575 495.098 258.847 494.9C261.118 494.702 263.179 493.517 265.029 491.346L269.043 495.485C265.991 498.51 262.763 500.057 259.358 500.126C255.953 500.196 252.596 498.842 249.287 496.064C245.947 493.259 244.08 490.114 243.688 486.627C243.296 483.14 244.25 480.027 246.549 477.288C247.719 475.895 249.153 474.765 250.853 473.898C252.553 473.03 254.688 472.408 257.259 472.029C259.831 471.651 263.742 471.453 268.993 471.435C273.365 471.435 276.237 471.357 277.61 471.201C278.983 471.044 280.233 470.778 281.359 470.401L264.285 456.066Z"/>
<path d="M246.999 462.967C242.928 466.476 239.29 468.88 236.086 470.181C232.883 471.482 229.896 471.886 227.125 471.395C224.355 470.903 221.891 469.405 219.732 466.899C218.14 465.051 217.115 463.11 216.658 461.076C216.201 459.041 216.282 456.966 216.901 454.85C217.519 452.734 218.612 450.551 220.179 448.3C221.746 446.05 224.237 443.454 227.65 440.512C231.69 437.031 235.309 434.636 238.506 433.327C241.703 432.018 244.691 431.607 247.469 432.091C250.247 432.576 252.722 434.079 254.894 436.601C257.755 439.92 258.811 443.553 258.064 447.499C257.155 452.239 253.467 457.395 246.999 462.967ZM243.255 458.622C248.908 453.751 252.1 449.848 252.831 446.912C253.562 443.976 253.091 441.538 251.418 439.596C249.745 437.654 247.399 436.831 244.379 437.127C241.36 437.423 237.032 440 231.395 444.858C225.726 449.742 222.53 453.649 221.807 456.578C221.083 459.506 221.572 461.957 223.272 463.93C224.945 465.872 227.103 466.714 229.746 466.456C233.099 466.104 237.602 463.493 243.255 458.622Z"/>
<path d="M221.816 399.725L226.39 396.923L242.084 422.543C240.96 423.28 239.745 423.77 238.439 424.012C236.294 424.429 233.936 424.438 231.364 424.038C228.792 423.638 225.564 422.761 221.68 421.407C215.645 419.31 211.164 418.14 208.239 417.896C205.314 417.651 202.952 418.08 201.154 419.181C199.268 420.337 198.091 421.985 197.621 424.127C197.152 426.269 197.581 428.424 198.909 430.592C200.313 432.884 202.123 434.296 204.34 434.828C206.557 435.361 208.887 434.891 211.33 433.419L213.824 438.618C209.971 440.518 206.418 440.961 203.167 439.947C199.915 438.933 197.161 436.584 194.905 432.9C192.626 429.181 191.854 425.605 192.589 422.174C193.323 418.743 195.215 416.093 198.264 414.225C199.815 413.275 201.534 412.658 203.421 412.375C205.308 412.092 207.531 412.179 210.089 412.635C212.648 413.092 216.42 414.145 221.405 415.794C225.551 417.181 228.3 418.018 229.652 418.305C231.003 418.592 232.273 418.736 233.461 418.735L221.816 399.725Z"/>
<path d="M212.858 396.798L210.063 391.911C212.75 390.124 214.449 388.254 215.16 386.302C215.871 384.349 215.809 382.348 214.975 380.3C213.984 377.869 212.305 376.159 209.938 375.171C207.571 374.182 205.143 374.195 202.655 375.209C200.281 376.176 198.64 377.749 197.731 379.928C196.821 382.106 196.854 384.392 197.829 386.784C198.227 387.761 198.914 388.898 199.89 390.197L195.119 391.471C195.017 391.111 194.923 390.826 194.837 390.615C193.94 388.414 192.558 386.667 190.692 385.374C188.826 384.081 186.697 383.922 184.304 384.897C182.409 385.669 181.1 386.95 180.379 388.739C179.657 390.529 179.71 392.438 180.536 394.467C181.355 396.477 182.67 397.895 184.479 398.72C186.289 399.545 188.535 399.634 191.217 398.987L192.405 404.53C188.682 405.31 185.413 404.969 182.595 403.505C179.778 402.042 177.691 399.645 176.334 396.314C175.398 394.017 175.029 391.701 175.227 389.366C175.425 387.03 176.167 385.004 177.453 383.285C178.74 381.567 180.34 380.318 182.254 379.538C184.073 378.797 185.927 378.61 187.818 378.978C189.709 379.346 191.485 380.308 193.145 381.863C192.706 379.14 193.109 376.721 194.357 374.606C195.604 372.491 197.587 370.879 200.305 369.772C203.98 368.274 207.642 368.344 211.289 369.983C214.937 371.622 217.595 374.489 219.265 378.586C220.77 382.28 220.919 385.796 219.712 389.134C218.506 392.471 216.221 395.026 212.858 396.798Z"/>
<path d="M193.92 345.977L188.392 346.947L185.428 330.059L190.955 329.089L193.92 345.977Z"/>
</g>
</g>
<g id="Capa-2" vectornator:layerName="Capa 2">
<path d="M534.255 242.547C539.187 244.05 490.555 279.404 476.379 291.187C454.862 309.072 416.946 285.96 376.801 297.079C356.212 302.781 328.189 370.037 307.452 392.318C293.079 407.761 263.266 400.396 258.762 398.374C251.751 395.225 266.813 374.479 266.813 374.479C270.693 374.914 275.698 395.448 293.477 378.75C316.991 356.667 351.761 292.523 374.56 286.276C414.491 275.335 442.873 302.114 472.589 282.161C502.493 262.082 527.841 240.593 534.255 242.547Z" fill="#b1935d" fill-rule="nonzero" opacity="1" stroke="none" vectornator:layerName="Polígono 4"/>
<path d="M419.552 340.373C419.552 340.373 396.886 351.95 379.407 351.38C366.817 350.969 356.678 344.024 348.082 334.258C339.879 324.939 349.082 312.855 361.717 310.548C366.981 309.587 380.907 307.841 391.196 313.803C405.604 322.152 419.552 340.373 419.552 340.373Z" fill="#6e9944" fill-rule="nonzero" opacity="1" stroke="none" vectornator:layerName="Polígono 5"/>
<path d="M287.365 272.548C287.365 272.548 311.099 282.633 322.272 296.714C330.321 306.856 331.836 319.414 330.21 332.634C328.659 345.25 313.479 346.056 303.362 337.682C299.147 334.193 288.593 324.434 286.24 312.412C282.946 295.576 287.365 272.548 287.365 272.548Z" fill="#6e9944" fill-rule="nonzero" opacity="1" stroke="none" vectornator:layerName="Polígono 6"/>
<path d="M463.589 206.728C463.589 206.728 471.644 235.287 467.366 255.328C464.285 269.763 454.498 280.007 441.918 287.883C429.913 295.399 418.488 282.262 418.578 267.208C418.615 260.936 419.594 244.509 428.326 233.888C440.555 219.013 463.589 206.728 463.589 206.728Z" fill="#6e9944" fill-rule="nonzero" opacity="1" stroke="none" vectornator:layerName="Polígono 7"/>
<path d="M566.107 324.012C566.107 324.012 536.097 327.32 516.814 319.267C502.924 313.467 494.426 301.411 488.796 286.861C483.424 272.975 498.609 263.388 513.653 266.174C519.92 267.334 536.178 271.294 545.242 282.315C557.936 297.75 566.107 324.012 566.107 324.012Z" fill="#6e9944" fill-rule="nonzero" opacity="1" stroke="none" vectornator:layerName="Polígono 8"/>
<path d="M387.055 201.284C387.055 201.284 402.196 225.164 403.723 244.739C404.823 258.84 398.64 271.002 389.255 281.788C380.298 292.081 366.261 283.288 362.252 269.47C360.582 263.713 357.014 248.385 362.128 236.175C369.29 219.077 387.055 201.284 387.055 201.284Z" fill="#6e9944" fill-rule="nonzero" opacity="1" stroke="none" vectornator:layerName="Polígono 9"/>
<path d="M484.535 368.517C484.535 368.517 457.88 358.799 444.864 343.95C435.489 333.255 433.191 319.52 434.32 304.873C435.398 290.895 452.082 289.124 463.649 297.752C468.467 301.346 480.584 311.474 483.778 324.57C488.251 342.911 484.535 368.517 484.535 368.517Z" fill="#6e9944" fill-rule="nonzero" opacity="1" stroke="none" vectornator:layerName="Polígono 10"/>
<path d="M570.249 182.663C570.249 182.663 572.758 208.785 565.895 225.487C560.951 237.518 550.843 244.808 538.681 249.584C527.075 254.142 519.217 240.86 521.66 227.801C522.677 222.361 526.108 208.256 535.359 200.464C548.316 189.553 570.249 182.663 570.249 182.663Z" fill="#6e9944" fill-rule="nonzero" opacity="1" stroke="none" vectornator:layerName="Polígono 11"/>
</g>
</svg>
