<?xml version="1.0" encoding="UTF-8" standalone="no"?>
<!DOCTYPE svg PUBLIC "-//W3C//DTD SVG 1.1//EN" "http://www.w3.org/Graphics/SVG/1.1/DTD/svg11.dtd">
<!-- Created with Vectornator (http://vectornator.io/) -->
<svg height="100%" stroke-miterlimit="10" style="fill-rule:nonzero;clip-rule:evenodd;stroke-linecap:round;stroke-linejoin:round;" version="1.1" viewBox="0 0 841.995 595.35" width="100%" xml:space="preserve" xmlns="http://www.w3.org/2000/svg" xmlns:vectornator="http://vectornator.io" xmlns:xlink="http://www.w3.org/1999/xlink">
<defs/>
<g id="Capa-1" vectornator:layerName="Capa 1">
<path d="M597.657 535.225L605.234 557.719L607.128 570.741L617.546 584.948L627.491 591.341L635.541 583.054L645.959 575.477L650.695 558.903L651.879 533.568L631.516 538.303L597.657 535.225Z" fill="#cc0000" fill-rule="nonzero" opacity="1" stroke="none" vectornator:layerName="Curva 1"/>
</g>
<g id="Capa-2" vectornator:layerName="Capa 2">
<g opacity="1" vectornator:layerName="Grupo 1">
<clipPath clip-rule="nonzero" id="ClipPath">
<path d="M110.529 260.65L130.096 304.299L136.931 331.641L147.185 356.477L147.413 374.934L143.311 390.656L137.456 392.638L138.115 406.889L150.651 414.806L181.395 421.667L204.091 411.111L225.402 397.243L265.883 399.201L287.594 379.94L309.793 369.33L352.433 359.57L389.182 354.67L425.317 365.899L435.729 371.615L434.913 378.965L440.629 385.294L458.595 418.163L492.281 377.331L485.952 414.488L477.786 421.429L489.627 421.021L495.343 404.28L501.672 412.446L498.406 428.983L506.164 431.637L523.542 455.596L549.965 484.581L581.131 493.245L597.033 482.769L626.384 498.835L646.692 477.568L671.016 470.739L684.723 433.071L702.493 393.115L730.97 343.702L738.077 297.897L728.662 274.88L727.833 246.496L683.326 194.934L672.266 180.951L662.419 157.777L626.153 138.08L610.31 77.6808L590.83 63.0196L567.481 7.55819L540.698 110.156L508.971 102.739L459.939 72.6601L485.073 28.9841L413.011 17.7031L375.934 47.6675L365.66 68.5506L345.353 70.136L325.748 60.7174L271.314 112.747L258.465 93.7854L252.189 121.415L213.488 153.253L178.15 164.026L147.253 172.588L128.282 190.982L123.64 181.162L116.867 208.752L111.6 228.567L125.145 256.911L110.529 260.65Z"/>
</clipPath>
<g clip-path="url(#ClipPath)">
<path d="M28.1333-43.6798C28.1333-59.293 38.1188-71.95 50.4365-71.95L851.287-71.95C863.605-71.95 873.59-59.293 873.59-43.6798L873.59 240.165C873.59 255.778 863.605 268.435 851.287 268.435L50.4365 268.435C38.1188 268.435 28.1333 255.778 28.1333 240.165L28.1333-43.6798Z" fill="#000000" fill-rule="nonzero" opacity="1" stroke="none" vectornator:layerName="Rectángulo 4"/>
<path d="M25.1823 289.781C25.1823 274.168 35.1678 261.511 47.4855 261.511L848.336 261.511C860.654 261.511 870.639 274.168 870.639 289.781L870.639 573.626C870.639 589.239 860.654 601.896 848.336 601.896L47.4855 601.896C35.1678 601.896 25.1823 589.239 25.1823 573.626L25.1823 289.781Z" fill="#cc0000" fill-rule="nonzero" opacity="1" stroke="none" vectornator:layerName="Rectángulo 3"/>
<path d="M306.195 268.619C306.195 204.243 358.382 152.056 422.759 152.056C487.135 152.056 539.323 204.243 539.323 268.619C539.323 332.996 487.135 385.183 422.759 385.183C358.382 385.183 306.195 332.996 306.195 268.619Z" fill="#ffff00" fill-rule="nonzero" opacity="1" stroke="none" vectornator:layerName="Óvalo 1"/>
</g>
</g>
</g>
</svg>
