<?xml version="1.0" encoding="UTF-8" standalone="no"?>
<!DOCTYPE svg PUBLIC "-//W3C//DTD SVG 1.1//EN" "http://www.w3.org/Graphics/SVG/1.1/DTD/svg11.dtd">
<!-- Created with Vectornator (http://vectornator.io/) -->
<svg height="100%" stroke-miterlimit="10" style="fill-rule:nonzero;clip-rule:evenodd;stroke-linecap:round;stroke-linejoin:round;" version="1.1" viewBox="0 0 841.995 595.35" width="100%" xml:space="preserve" xmlns="http://www.w3.org/2000/svg" xmlns:vectornator="http://vectornator.io" xmlns:xlink="http://www.w3.org/1999/xlink">
<defs/>
<g id="Capa-2" vectornator:layerName="Capa 2">
<path d="M39.6122 66.4362L99.6668 90.8205L134.794 93.6258L196.857 66.4362L196.857 200.604L129.716 179.215L57.2725 187.02L47.0802 159.951L20.2376 132.671L39.6122 66.4362Z" fill="#53990d" fill-rule="nonzero" opacity="1" stroke="none" vectornator:layerName="Rectángulo 2"/>
<path d="M154.997 31.5525L200.071 46.3683L258.864 59.1307L289.827 35.628L299.533 52.4326L312.242 165.721L281.707 161.852L226.951 205.134L154.997 165.721L162.099 72.7049L143.144 52.2095L154.997 31.5525Z" fill="#53990d" fill-rule="nonzero" opacity="1" stroke="none" vectornator:layerName="Rectángulo 3"/>
<path d="M285.945 62.1428L341.624 88.0631L379.3 46.5244L429.892 69.982L459.793 95.4642L438.136 188.542L316.882 199.924L297.909 177.027L285.945 62.1428Z" fill="#53990d" fill-rule="nonzero" opacity="1" stroke="none" vectornator:layerName="Rectángulo 4"/>
<path d="M363.762 203.288L439.184 193.6L463.041 176.852L478.228 192.537L521.008 203.288L489.15 260.274L521.008 337.456L447.88 287.739L374.864 324.906L392.724 282.478L367.786 245.623L363.762 203.288Z" fill="#53990d" fill-rule="nonzero" opacity="1" stroke="none" vectornator:layerName="Rectángulo 5"/>
<path d="M339.249 343.837L367.543 325.482L385.819 326.643L442.974 353.865L438.91 381.795L447.281 416.727L421.476 411.086L395.482 414.674L383.862 437.482L360.554 424.577L357.653 385.117L339.249 343.837Z" fill="#53990d" fill-rule="nonzero" opacity="1" stroke="none" vectornator:layerName="Rectángulo 6"/>
<path d="M211.884 209.191L277.808 227.641L327.574 214.714L358.027 213.535L366.834 317.308L340.168 333.223L251.76 326.791L234.57 332.74L242.511 292.163L211.884 209.191Z" fill="#53990d" fill-rule="nonzero" opacity="1" stroke="none" vectornator:layerName="Rectángulo 7"/>
<path d="M480.629 62.7491L536.047 32.9603L585.391 47.8207L621.62 73.7088L608.485 168.404L546.348 136.547L485.539 182.452L466.959 169.935L445.688 177.172L458.223 117.051L480.629 62.7491Z" fill="#53990d" fill-rule="nonzero" opacity="1" stroke="none" vectornator:layerName="Rectángulo 8"/>
<path d="M545.158 86.8298L638.058 118.687L702.403 86.8298L726.055 134.293L702.403 220.998L656.883 189.623L603.373 220.881L545.158 220.998L560.604 143.947L545.158 86.8298Z" fill="#53990d" fill-rule="nonzero" opacity="1" stroke="none" vectornator:layerName="Rectángulo 9"/>
<path d="M534.961 233.878L596.092 226.755L658.84 205.355L692.206 233.878L673.864 286.822L690.758 350.187L670.199 347.488L582.549 344.877L554.751 352.118L556.076 334.135L558.13 273.789L534.961 233.878Z" fill="#53990d" fill-rule="nonzero" opacity="1" stroke="none" vectornator:layerName="Rectángulo 10"/>
<path d="M698.529 177.731L727.831 185.959L759.587 163.946L791.803 169.527L806.119 184.22L823.104 201.473L814.263 248.69L812.815 279.076L764.789 304.67L710.239 271.415L701.724 255.986L719.66 227.932L701.907 207.179L698.529 177.731Z" fill="#53990d" fill-rule="nonzero" opacity="1" stroke="none" vectornator:layerName="Rectángulo 11"/>
</g>
<g id="Capa-1" vectornator:layerName="Capa 1">
<g opacity="1" vectornator:layerName="Curva 1">
<path d="M272.406 106.688C267.737 107.033 264.217 111.112 264.562 115.781C264.844 119.221 264.489 122.666 263.938 126.062C263.36 129.621 262.575 133.132 261.688 136.625C259.128 146.704 255.807 156.607 252.344 166.406C245.234 186.526 237.436 206.386 230.312 226.5C227.681 233.931 225.121 241.411 222.875 248.969C221.124 254.86 219.545 260.82 218.469 266.875C217.804 270.613 217.329 274.388 216.875 278.156C216.177 283.946 215.615 289.749 215.156 295.562C213.523 316.286 213.264 337.096 213.312 357.875C213.373 383.811 213.863 409.759 212.969 435.688C212.648 444.988 211.97 454.283 211.281 463.562C209.151 492.273 204.74 520.762 195.062 547.969C193.539 552.238 195.762 556.914 200.031 558.438C204.3 559.961 209.008 557.738 210.531 553.469C219.905 527.29 224.865 499.839 226.969 472.156C227.844 460.645 228.125 449.133 228.25 437.594C228.348 428.53 228.436 419.471 228.375 410.406C228.228 388.454 227.928 366.484 228.156 344.531C228.322 328.605 228.86 312.685 230.219 296.812C230.964 288.105 231.868 279.337 233.344 270.719C234.438 264.33 236.254 258.084 238.188 251.906C240.681 243.939 243.505 236.077 246.406 228.25C254.283 207.003 262.898 186.02 270.375 164.625C273.642 155.278 276.724 145.832 279 136.188C280.67 129.111 281.998 121.827 281.5 114.531C281.154 109.862 277.076 106.342 272.406 106.688Z" fill="#000000" stroke="none"/>
</g>
<g opacity="1" vectornator:layerName="Curva 2">
<path d="M112.062 133.562C109.137 133.049 106.326 135.012 105.812 137.938C105.299 140.863 107.262 143.643 110.188 144.156C110.446 144.1 111.85 144.862 112.188 145.031C114.211 146.047 116.184 147.213 118.125 148.375C125.54 152.816 132.722 157.621 139.875 162.469C149.616 169.07 159.239 175.834 168.781 182.719C179.965 190.788 191.107 198.981 201.781 207.719C203.547 209.164 205.248 210.694 207 212.156C212.387 216.65 217.852 221.027 223.125 225.656C224.982 227.287 226.827 228.958 228.562 230.719C229.32 231.487 230.17 232.278 230.719 233.219C232.196 235.686 235.377 236.478 237.844 235C240.311 233.522 241.134 230.342 239.656 227.875C238.304 225.639 236.399 223.775 234.531 221.969C232.736 220.233 230.88 218.55 229 216.906C223.935 212.479 218.71 208.243 213.344 204.188C211.501 202.795 209.601 201.474 207.75 200.094C187.102 184.704 166.634 169.045 145.594 154.188C138.378 149.092 131.117 144.059 123.625 139.375C121.485 138.037 119.328 136.707 117.094 135.531C115.485 134.685 113.857 133.911 112.062 133.562Z" fill="#000000" stroke="none"/>
</g>
<g opacity="1" vectornator:layerName="Curva 3">
<path d="M141.688 97.4688C140.989 97.4655 140.279 97.5889 139.594 97.875C136.853 99.0195 135.574 102.165 136.719 104.906C138.758 109.653 141.028 114.285 143.688 118.719C156.723 140.448 176.369 157.225 195.938 172.875C200.855 176.808 205.796 180.722 210.688 184.688C213.483 186.954 216.204 189.326 219 191.594C226.2 197.433 233.436 203.192 240.375 209.344C242.523 211.256 245.807 211.054 247.719 208.906C249.631 206.759 249.46 203.475 247.312 201.562C240.625 195.585 233.705 189.875 226.594 184.406C220.847 179.987 214.898 175.833 209.156 171.406C199.701 164.117 190.459 156.545 181.719 148.406C170.623 138.075 160.252 126.62 152.688 113.406C150.356 109.333 148.388 105.126 146.625 100.781C145.767 98.7255 143.783 97.4784 141.688 97.4688Z" fill="#000000" stroke="none"/>
</g>
<g opacity="1" vectornator:layerName="Curva 4">
<path d="M169.031 115.25C167.575 115.761 166.801 117.356 167.312 118.812C168.149 121.142 169.127 123.39 170.375 125.531C174.635 132.84 181.261 138.336 188.406 142.688C198.128 148.608 208.845 152.579 219.156 157.312C225.313 160.139 231.368 163.297 236.594 167.656C239.958 170.462 242.92 173.824 244.625 177.906C245.434 179.843 245.916 181.832 246.188 183.906C246.38 185.388 247.737 186.442 249.219 186.25C250.701 186.057 251.724 184.701 251.531 183.219C251.202 180.668 250.643 178.195 249.656 175.812C245.503 165.791 235.785 160.068 226.5 155.469C214.758 149.652 202.24 145.288 191.094 138.312C185.061 134.537 179.382 129.839 175.656 123.688C174.367 121.558 173.398 119.32 172.594 116.969C172.083 115.512 170.488 114.739 169.031 115.25Z" fill="#000000" stroke="none"/>
</g>
<g opacity="1" vectornator:layerName="Curva 5">
<path d="M188.594 108.75C187.078 109.042 186.083 110.515 186.375 112.031C186.908 114.458 187.347 116.873 187.625 119.344C187.939 122.128 188.114 124.943 188.5 127.719C188.791 129.813 189.217 131.853 189.719 133.906C189.934 134.787 190.145 135.684 190.469 136.531C191.172 138.372 192.14 140.077 193.219 141.719C194.034 142.971 195.716 143.315 196.969 142.5C198.221 141.685 198.565 140.003 197.75 138.75C196.097 136.18 194.603 133.316 193.875 130.344C193.062 127.025 193.031 123.519 192.844 120.125C192.674 117.042 192.349 114.014 191.844 110.969C191.552 109.453 190.109 108.458 188.594 108.75Z" fill="#000000" stroke="none"/>
</g>
<g opacity="1" vectornator:layerName="Curva 6">
<path d="M223.906 101.875C222.373 102.049 221.263 103.435 221.438 104.969C222.456 113.152 225.147 120.84 228.562 128.312C231.846 135.496 235.783 142.352 238.875 149.625C241.946 156.848 244.06 164.584 244.781 172.406C244.915 173.895 246.23 175.009 247.719 174.875C249.207 174.741 250.322 173.426 250.188 171.938C249.76 167.097 248.879 162.314 247.375 157.688C246.265 154.273 244.799 150.967 243.344 147.688C238.606 137.012 232.528 126.779 229.188 115.531C228.099 111.866 227.389 108.145 227 104.344C226.826 102.81 225.44 101.701 223.906 101.875Z" fill="#000000" stroke="none"/>
</g>
<g opacity="1" vectornator:layerName="Curva 7">
<path d="M254.844 111.594C253.376 111.315 251.935 112.282 251.656 113.75C250.978 117.272 250.414 120.8 250.094 124.375C249.785 127.815 249.686 131.271 249.469 134.719C248.78 145.665 248.505 156.629 248.344 167.594C248.343 169.137 249.581 170.406 251.125 170.406C252.669 170.407 253.937 169.137 253.938 167.594C253.778 156.367 253.56 145.114 254.375 133.906C254.593 130.912 255.002 127.941 255.406 124.969C255.871 121.548 256.366 118.145 257 114.75C257.278 113.282 256.312 111.872 254.844 111.594Z" fill="#000000" stroke="none"/>
</g>
<g opacity="1" vectornator:layerName="Curva 8">
<path d="M321.344 175C320.671 175.242 320.079 175.739 319.75 176.438C318.246 179.722 315.586 182.373 312.875 184.688C309.15 187.867 305.028 190.583 300.812 193.062C294.843 196.574 288.6 199.616 282.25 202.375C274.531 205.729 266.635 208.612 258.5 210.781C251.981 212.52 245.146 214.539 238.344 214.625C236.85 214.642 235.639 215.85 235.656 217.344C235.673 218.838 236.912 220.048 238.406 220.031C242.06 219.995 245.68 219.402 249.25 218.656C254.708 217.516 259.978 215.878 265.25 214.094C279.058 209.421 292.737 203.829 305.312 196.406C309.677 193.83 313.954 190.996 317.75 187.625C320.582 185.11 323.16 182.249 324.812 178.812C325.47 177.416 324.866 175.751 323.469 175.094C322.77 174.765 322.017 174.758 321.344 175Z" fill="#000000" stroke="none"/>
</g>
<g opacity="1" vectornator:layerName="Curva 9">
<path d="M383.281 110.5C381.974 110.415 380.625 110.817 379.562 111.75C372.089 118.399 365.835 126.247 360.094 134.406C354.327 142.602 349.051 151.111 343.875 159.688C334.878 174.596 326.205 189.706 316.719 204.312C310.643 213.668 304.252 222.853 297.156 231.469C292.075 237.639 286.601 243.593 280.562 248.844C278.003 251.069 275.297 253.153 272.562 255.156C264.33 261.186 255.182 266.099 245.219 268.531C240.394 269.709 235.489 270.195 230.531 270.281C227.794 270.325 225.612 272.575 225.656 275.312C225.7 278.05 227.95 280.232 230.688 280.188C236.381 280.103 242.019 279.526 247.562 278.188C259.218 275.372 270.003 269.593 279.375 262.188C282.276 259.895 284.966 257.376 287.656 254.844C292.577 250.212 297.172 245.255 301.531 240.094C320.841 217.232 335.628 191.059 351.344 165.719C356.725 157.043 362.176 148.404 368.156 140.125C373.54 132.671 379.344 125.509 386.312 119.469C388.437 117.602 388.647 114.343 386.781 112.219C385.848 111.157 384.589 110.585 383.281 110.5Z" fill="#000000" stroke="none"/>
</g>
<g opacity="1" vectornator:layerName="Curva 10">
<path d="M512.125 104.406C509.955 104.379 507.77 105.178 506.094 106.812C502.742 110.082 502.668 115.43 505.938 118.781C507.962 120.828 509.77 123.068 511.219 125.562C516.537 134.721 516.677 145.858 515.531 156.094C513.877 170.878 509.428 185.178 506.625 199.75C505.212 207.095 504.524 214.472 504.25 221.938C503.728 236.172 504.157 250.428 504.688 264.656C505.323 281.687 506.247 298.7 507.156 315.719C509.319 356.209 511.682 396.748 511.5 437.312C511.469 444.211 511.202 451.104 511.031 458C510.758 469.002 510.262 480.027 509.406 491C508.675 500.375 507.678 509.754 505.938 519C504.91 524.462 503.634 529.93 501.719 535.156C500.377 538.818 498.725 542.412 496.188 545.406C493.259 548.866 493.665 554.04 497.125 556.969C500.585 559.897 505.79 559.491 508.719 556.031C516.293 547.076 519.592 534.808 521.844 523.531C523.905 513.207 525.04 502.742 525.812 492.25C526.62 481.285 527.004 470.275 527.094 459.281C527.154 451.917 526.946 444.581 526.812 437.219C526.647 428.079 526.402 418.919 526.125 409.781C525.061 374.629 523.222 339.536 521.625 304.406C520.856 287.485 520.137 270.53 519.812 253.594C519.585 241.709 519.419 229.772 520.25 217.906C520.474 214.71 520.811 211.54 521.312 208.375C522.602 200.242 524.717 192.244 526.656 184.25C528.943 174.824 531.139 165.352 532.125 155.688C533.462 142.577 532.453 128.869 525.844 117.188C523.718 113.43 521.087 110.07 518.094 106.969C516.459 105.293 514.295 104.433 512.125 104.406Z" fill="#000000" stroke="none"/>
</g>
<g opacity="1" vectornator:layerName="Curva 11">
<path d="M647.656 248.75C643.851 249.148 641.102 252.538 641.5 256.344C642.539 265.642 642.347 275.109 639.031 283.969C637.546 287.938 635.491 291.659 633.156 295.188C629.346 300.944 624.831 306.206 620.688 311.719C616.834 316.846 613.277 322.193 610.406 327.938C609.222 330.308 608.16 332.742 607.219 335.219C606.582 336.894 605.952 338.547 605.781 340.344C605.484 343.482 606.317 346.56 607.406 349.469C608.891 353.433 610.934 357.137 612.844 360.906C613.819 362.831 614.782 364.754 615.531 366.781C615.854 367.654 616.197 368.593 616.25 369.531C616.492 373.848 616.545 378.178 616.594 382.5C616.673 389.496 616.639 396.504 616.562 403.5C616.382 419.976 615.838 436.459 614.844 452.906C614.371 460.734 613.641 468.556 613.031 476.375C612.217 486.807 611.338 497.229 609.875 507.594C609.404 510.934 608.866 514.295 608.156 517.594C607.659 519.904 607.11 522.194 606.188 524.375C604.745 527.787 606.338 531.745 609.75 533.188C613.162 534.63 617.089 533.037 618.531 529.625C621.204 523.299 622.247 516.252 623.219 509.5C624.566 500.137 625.416 490.714 626.094 481.281C627.163 466.406 627.416 451.498 627.844 436.594C628.388 417.645 628.883 398.677 628.75 379.719C628.731 377.027 628.701 374.316 628.625 371.625C628.576 369.876 628.553 368.129 628.219 366.406C627.364 362.008 625.231 357.904 623.25 353.938C621.806 351.044 620.282 348.173 619.188 345.125C618.874 344.251 618.565 343.414 618.406 342.5C618.364 342.256 618.319 342.029 618.312 341.781C618.311 341.711 618.347 341.556 618.344 341.562C618.343 341.563 618.345 341.522 618.344 341.531C619.265 339.146 620.207 336.794 621.344 334.5C623.204 330.747 625.446 327.191 627.875 323.781C634.519 314.452 642.636 306.174 648.156 296.062C650.473 291.819 652.299 287.357 653.562 282.688C656.013 273.63 656.19 264.195 655.281 254.906C654.883 251.101 651.462 248.352 647.656 248.75Z" fill="#000000" stroke="none"/>
</g>
<g opacity="1" vectornator:layerName="Curva 12">
<path d="M294.375 262.375C293.475 262.385 292.564 262.586 291.688 262.969C288.18 264.498 286.596 268.586 288.125 272.094C292.126 281.096 294.789 290.534 295.812 300.344C297.455 316.084 295.065 331.855 292.594 347.375C290.316 361.684 287.985 376.01 287.75 390.531C287.611 399.107 288.254 407.682 289 416.219C290.118 429.011 291.761 441.728 293.344 454.469C294.508 463.837 295.646 473.225 296.531 482.625C296.995 487.552 297.308 492.501 297.656 497.438C298.605 510.905 299.116 524.444 298.406 537.938C298.069 544.346 297.414 550.712 296.5 557.062C295.968 560.728 298.49 564.124 302.156 564.656C305.822 565.189 309.249 562.634 309.781 558.969C312.908 537.637 312.742 516.111 310.594 494.688C310.145 490.207 309.526 485.748 308.969 481.281C306.492 461.436 303.56 441.635 301.688 421.719C300.808 412.363 300.008 402.905 300.062 393.5C300.216 367.288 308.31 341.985 309.5 315.875C309.933 306.367 309.387 296.803 307.469 287.469C305.988 280.265 303.706 273.286 300.812 266.531C299.665 263.901 297.075 262.345 294.375 262.375Z" fill="#000000" stroke="none"/>
</g>
<g opacity="1" vectornator:layerName="Curva 13">
<path d="M343.031 215.5C342.143 215.354 341.211 215.369 340.281 215.594C336.562 216.494 334.256 220.25 335.156 223.969C336.663 230.023 339.454 235.619 342.5 241.031C346.055 247.348 350.05 253.425 354.094 259.438C359.343 267.242 364.838 274.901 369.781 282.906C373.558 289.022 376.85 295.434 380.156 301.812C390.555 321.872 399.783 342.583 407.688 363.75C417.182 389.176 424.836 415.408 429.062 442.25C429.817 447.039 430.341 451.87 430.875 456.688C433.393 479.394 433.763 502.355 429.719 524.906C429.061 528.552 431.48 532.029 435.125 532.688C438.77 533.346 442.248 530.926 442.906 527.281C446.831 505.69 447.119 483.632 444.719 461.844C443.967 455.022 442.877 448.246 441.625 441.5C440.188 433.754 438.646 426.077 436.844 418.406C427.066 376.796 411.8 336.434 392.719 298.219C389.2 291.173 385.656 284.069 381.656 277.281C376.841 269.109 371.405 261.322 366.188 253.406C362.091 247.191 358.013 240.94 354.438 234.406C352.06 230.061 349.758 225.571 348.625 220.719C347.949 217.93 345.696 215.937 343.031 215.5Z" fill="#000000" stroke="none"/>
</g>
<g opacity="1" vectornator:layerName="Curva 14">
<path d="M327.625 238.094C326.523 238.245 325.475 238.825 324.75 239.781C322.698 242.559 320.96 245.494 319.625 248.688C312.959 264.631 317.298 282.119 314.781 298.719C313.214 309.056 308.283 318.224 301.031 325.656C299.405 327.315 299.435 329.967 301.094 331.594C302.753 333.22 305.436 333.221 307.062 331.562C311.56 326.996 315.439 321.83 318.031 315.938C319.184 313.317 320.003 310.581 320.719 307.812C322.221 302.002 322.851 295.984 323.125 290C323.409 283.805 323.289 277.601 323.562 271.406C323.807 265.87 324.399 260.267 326.219 255C327.477 251.36 329.324 248.056 331.688 245.031C333.138 243.119 332.756 240.388 330.844 238.938C329.888 238.212 328.727 237.942 327.625 238.094Z" fill="#000000" stroke="none"/>
</g>
<g opacity="1" vectornator:layerName="Curva 15">
<path d="M255.562 303.344C253.897 303.041 252.143 303.745 251.156 305.25C249.841 307.257 250.399 309.935 252.406 311.25C259.741 315.912 265.47 322.683 270.281 329.844C275.113 337.036 279.128 344.789 282.312 352.844C284.396 358.113 286.169 363.585 287.25 369.156C287.505 370.469 287.669 371.804 287.875 373.125C288.89 379.634 289.533 386.173 288.5 392.719C288.134 395.013 289.675 397.165 291.969 397.531C294.263 397.898 296.415 396.325 296.781 394.031C297.93 386.919 297.584 379.713 296.188 372.656C295.693 370.16 295.011 367.704 294.344 365.25C290.357 350.58 284.25 336.245 275.781 323.594C270.734 316.053 264.73 309.097 257.156 304C256.654 303.671 256.118 303.445 255.562 303.344Z" fill="#000000" stroke="none"/>
</g>
<g opacity="1" vectornator:layerName="Curva 16">
<path d="M397.594 147.844C395.243 148.323 393.708 150.618 394.188 152.969C394.938 156.508 395.187 160.029 394.719 163.625C393.893 169.968 391.187 175.917 388.781 181.781C386.376 187.646 384.141 193.665 383.594 200.031C383.428 201.959 383.37 203.948 383.594 205.875C383.833 207.94 384.472 209.963 385.094 211.938C386.006 214.833 387.034 217.706 388.062 220.562C391.07 228.916 394.202 237.221 397.156 245.594C400.499 255.068 403.698 264.591 406.25 274.312C408.194 281.718 409.783 289.304 410.5 296.938C410.867 300.849 411.125 305.131 409.938 308.938C409.496 310.352 408.764 311.828 407.344 312.469C405.822 313.155 403.992 312.92 402.406 312.625C400.123 312.198 397.927 313.685 397.5 315.969C397.073 318.252 398.591 320.448 400.875 320.875C402.989 321.271 405.139 321.465 407.281 321.156C408.484 320.983 409.67 320.651 410.781 320.156C418.782 316.597 419.548 306.563 419.094 298.969C419.008 297.537 418.89 296.111 418.719 294.688C418.079 289.378 416.865 284.163 415.5 279C414.45 275.026 413.378 271.091 412.188 267.156C408.595 255.279 404.508 243.531 400.344 231.844C398.283 226.06 396.181 220.287 394.219 214.469C393.498 212.332 392.794 210.204 392.188 208.031C391.907 207.027 391.619 206.008 391.5 204.969C391.233 202.633 391.584 200.104 392.031 197.812C393.19 191.874 395.873 186.388 398.188 180.844C400.676 174.884 402.922 168.709 403.438 162.219C403.732 158.512 403.435 154.86 402.719 151.219C402.239 148.868 399.945 147.364 397.594 147.844Z" fill="#000000" stroke="none"/>
</g>
<g opacity="1" vectornator:layerName="Curva 17">
<path d="M426.5 143.656C425.105 143.79 424.085 145.012 424.219 146.406C424.891 152.838 424.735 159.261 423 165.531C419.093 179.649 408.404 190.389 399.375 201.406C395.483 206.155 392.057 211.224 389.031 216.562C388.361 217.741 388.759 219.236 389.938 219.906C391.116 220.577 392.611 220.179 393.281 219C397.602 211.433 402.877 204.428 408.344 197.656C415.63 188.631 423.31 179.693 427.031 168.5C429.466 161.178 429.917 153.578 429.25 145.938C429.116 144.543 427.895 143.523 426.5 143.656Z" fill="#000000" stroke="none"/>
</g>
<g opacity="1" vectornator:layerName="Curva 18">
<path d="M417.344 227.562C416.697 227.512 416.032 227.701 415.5 228.156C412.834 230.579 410.008 232.92 407.719 235.719C404.895 239.172 402.981 243.356 401.594 247.562C401.161 248.848 401.871 250.224 403.156 250.656C404.442 251.089 405.818 250.41 406.25 249.125C406.757 247.649 407.329 246.171 407.812 244.688C408.254 243.333 408.719 242.065 409.469 240.844C411.715 237.185 415.529 234.669 418.812 232.031C419.878 231.121 420.004 229.503 419.094 228.438C418.639 227.905 417.991 227.613 417.344 227.562Z" fill="#000000" stroke="none"/>
</g>
<g opacity="1" vectornator:layerName="Curva 19">
<path d="M404.812 349.125C404.228 348.894 403.56 348.886 402.938 349.156C400.066 350.399 397.51 352.045 395.25 354.219C392.703 356.668 390.747 359.629 388.906 362.625C386.196 367.037 383.873 371.673 381.344 376.188C378.97 380.425 375.693 386.419 370.781 388.094C369.8 388.428 368.81 388.539 367.781 388.562C366.381 388.618 365.319 389.788 365.375 391.188C365.431 392.587 366.6 393.681 368 393.625C369.539 393.543 371.015 393.321 372.469 392.781C377.97 390.739 381.4 385.437 384.156 380.562C388.239 373.342 391.34 365.521 397.062 359.375C399.325 356.945 401.856 354.987 404.906 353.656C406.15 353.116 406.728 351.681 406.188 350.438C405.917 349.816 405.397 349.356 404.812 349.125Z" fill="#000000" stroke="none"/>
</g>
<g opacity="1" vectornator:layerName="Curva 20">
<path d="M716.094 201.875C715.57 201.788 715.017 201.806 714.469 201.938C712.158 202.518 709.944 203.273 707.781 204.281C701.143 207.375 695.753 212.475 691.281 218.188C684.452 226.913 679.63 236.925 673.875 246.344C668.836 254.591 661.959 264.192 651.906 266.406C649.647 266.904 647.359 266.936 645.062 266.75C642.885 266.57 640.993 268.166 640.812 270.344C640.632 272.521 642.229 274.445 644.406 274.625C647.112 274.853 649.817 274.837 652.5 274.375C658.165 273.4 663.325 270.54 667.469 266.594C670.578 263.633 673.225 260.149 675.656 256.625C682.838 246.215 688.193 234.614 695.906 224.562C699.789 219.503 704.426 214.752 710.25 211.969C712.213 211.031 714.257 210.354 716.375 209.875C718.57 209.349 719.932 207.164 719.406 204.969C719.012 203.323 717.665 202.137 716.094 201.875Z" fill="#000000" stroke="none"/>
</g>
<g opacity="1" vectornator:layerName="Curva 21">
<path d="M767.5 229.281C759.009 231.093 750.483 234.075 744.312 240.469C742.511 242.335 740.968 244.466 739.688 246.719C736.366 252.561 734.86 259.147 732.75 265.469C730.602 271.904 727.638 277.996 723.031 283.031C722.088 284.063 721.098 285.161 720 286.031C718.352 287.339 716.554 288.492 714.844 289.719C713.89 290.403 712.947 291.246 711.938 291.844C711.286 292.229 710.559 292.457 709.875 292.781C709.094 293.152 708.313 293.535 707.531 293.906C706.017 294.626 704.511 295.404 702.969 296.062C701.014 296.898 698.988 297.59 697 298.344C686.948 302.157 676.522 305.599 667.906 312.25C666.237 313.538 664.637 314.903 663.188 316.438C660.939 318.819 658.978 321.45 656.969 324.031C650.919 331.804 645.401 340.114 638.438 347.125C637.808 347.759 637.221 348.336 636.562 348.938C633.85 351.415 629.295 355.361 625.281 353.688C623.262 352.852 620.929 353.793 620.094 355.812C619.259 357.832 620.231 360.165 622.25 361C629.593 364.021 636.526 359.703 641.906 354.812C648.766 348.577 654.371 340.706 659.688 333.156C662.339 329.391 664.886 325.55 667.906 322.062C675.035 313.831 685.908 310.063 695.812 306.406C699.124 305.184 702.526 304.051 705.781 302.688C707.417 302.003 709.018 301.187 710.625 300.438C712.269 299.671 714.026 299.004 715.594 298.094C717.169 297.179 718.636 295.988 720.125 294.938C721.589 293.905 723.154 292.919 724.562 291.812C725.97 290.706 727.25 289.37 728.469 288.062C733.838 282.304 737.405 275.337 739.969 267.938C742.449 260.778 744.001 252.688 749.156 246.844C754.227 241.094 761.89 238.745 769.156 237.281C771.366 236.823 772.802 234.647 772.344 232.438C771.885 230.228 769.71 228.823 767.5 229.281Z" fill="#000000" stroke="none"/>
</g>
<g opacity="1" vectornator:layerName="Curva 22">
<path d="M605.25 236.125C604.057 236.525 603.413 237.838 603.812 239.031C605.208 243.099 606.159 247.206 606.5 251.5C607.538 264.557 603.84 277.449 601.906 290.25C600.704 298.21 599.94 306.408 600.906 314.438C601.629 320.441 603.371 326.216 605.781 331.75C606.266 332.867 607.57 333.391 608.688 332.906C609.805 332.421 610.297 331.117 609.812 330C605.233 319.413 603.841 307.978 605.062 296.531C606.678 281.399 611.858 266.551 610.844 251.188C610.535 246.515 609.58 242.005 608.125 237.562C607.725 236.369 606.443 235.725 605.25 236.125Z" fill="#000000" stroke="none"/>
</g>
<g opacity="1" vectornator:layerName="Curva 23">
<path d="M583.062 251.594C582.499 251.618 581.943 251.864 581.531 252.312C580.708 253.21 580.79 254.614 581.688 255.438C585.015 258.495 587.493 262.276 589.812 266.125C591.999 269.754 594.015 273.443 595.875 277.25C599.94 285.571 603.538 294.145 607.531 302.5C610.413 308.528 613.471 314.467 617.375 319.906C618.117 320.922 619.515 321.149 620.531 320.406C621.547 319.664 621.774 318.235 621.031 317.219C616.523 311.162 613.117 304.374 609.844 297.594C606.063 289.761 602.495 281.835 598.719 274C594.972 266.226 591.126 258.106 584.656 252.188C584.207 251.776 583.626 251.569 583.062 251.594Z" fill="#000000" stroke="none"/>
</g>
<g opacity="1" vectornator:layerName="Curva 24">
<path d="M634.062 186.5C631.402 186.862 629.512 189.308 629.875 191.969C630.964 199.601 631.381 207.37 630.312 215.031C629.611 220.058 628.379 225 626.5 229.719C618.446 249.941 600.034 263.329 582.531 274.969C569.959 283.33 557.044 291.254 545.25 300.719C534.726 309.164 525.189 319.059 519.312 331.344C517.565 334.996 516.142 338.816 515.062 342.719C513.17 349.564 512.389 356.598 512.344 363.688C512.324 366.287 514.401 368.418 517 368.438C519.599 368.457 521.731 366.349 521.75 363.75C521.803 357.491 522.47 351.291 524.156 345.25C527.327 333.889 533.891 323.757 542 315.281C548.038 308.97 555.053 303.594 562.188 298.594C574.199 290.176 586.941 282.856 598.844 274.281C600.398 273.161 601.906 271.963 603.438 270.812C616.033 261.35 627.493 249.925 634.094 235.406C635.773 231.713 637.117 227.835 638.125 223.906C640.918 213.022 640.974 201.745 639.531 190.656C639.169 187.996 636.723 186.138 634.062 186.5Z" fill="#000000" stroke="none"/>
</g>
<g opacity="1" vectornator:layerName="Curva 25">
<path d="M588.719 113.938C586.034 113.887 583.831 116.034 583.781 118.719C583.762 120.587 583.627 122.411 583.281 124.25C582.146 130.286 579.168 135.772 575.812 140.844C570.915 148.246 565.14 155.037 560.469 162.594C559.241 164.579 558.07 166.596 557.031 168.688C556.568 169.62 556.075 170.553 555.719 171.531C555.021 173.447 554.651 175.561 554.125 177.531C553.785 178.804 553.258 180.168 553.094 181.469C552.934 182.738 553.103 184.184 553.125 185.469C553.159 187.421 553.061 189.398 553.219 191.344C553.348 192.937 553.705 194.543 553.938 196.125C555.264 205.144 557.653 214.734 554.562 223.656C553.963 225.388 553.144 227.042 552.344 228.688C551.131 231.183 549.81 233.639 548.406 236.031C543.948 243.63 538.581 250.554 533.312 257.594C528.192 264.436 523.218 271.43 519 278.875C515.979 284.208 513.389 289.758 511.25 295.5C510.34 297.935 511.597 300.621 514.031 301.531C516.466 302.442 519.152 301.216 520.062 298.781C521.846 294.029 523.953 289.414 526.406 284.969C530.642 277.296 535.742 270.186 540.781 263.031C543.683 258.911 546.521 254.727 549.312 250.531C552.864 245.193 556.23 239.726 559.125 234C560.37 231.538 561.616 229.045 562.531 226.438C564.536 220.73 564.858 214.673 564.344 208.688C564.012 204.822 563.343 200.997 562.812 197.156C562.516 195.013 562.059 192.845 561.906 190.688C561.782 188.932 561.886 187.105 561.875 185.344C561.871 184.595 561.898 183.873 561.875 183.125C561.87 182.957 561.788 182.791 561.812 182.625C561.895 182.056 562.158 181.522 562.312 180.969C562.521 180.223 562.729 179.465 562.938 178.719C563.313 177.373 563.601 175.931 564.094 174.625C564.478 173.607 565.079 172.612 565.594 171.656C566.377 170.203 567.208 168.768 568.094 167.375C570.404 163.742 573.018 160.298 575.625 156.875C582.176 148.275 589.167 139.481 592.094 128.875C592.997 125.601 593.413 122.296 593.5 118.906C593.55 116.222 591.403 113.988 588.719 113.938Z" fill="#000000" stroke="none"/>
</g>
<g opacity="1" vectornator:layerName="Curva 26">
<path d="M626.5 138.844C625.794 138.961 625.136 139.341 624.688 139.969C618.28 149.112 610.7 157.011 601.625 163.562C594.677 168.578 587.265 172.868 579.75 176.969C576.053 178.986 572.295 180.909 568.656 183.031C564.203 185.628 559.859 188.435 555.625 191.375C554.396 192.225 554.087 193.896 554.938 195.125C555.788 196.354 557.49 196.663 558.719 195.812C566.281 190.6 574.171 185.869 582.125 181.281C590.733 176.317 599.477 171.549 607.438 165.562C615.835 159.247 623.048 151.701 629.219 143.219C630.116 141.963 629.819 140.241 628.562 139.344C627.934 138.895 627.206 138.726 626.5 138.844Z" fill="#000000" stroke="none"/>
</g>
</g>
</svg>
