<?xml version="1.0" encoding="UTF-8" standalone="no"?>
<!DOCTYPE svg PUBLIC "-//W3C//DTD SVG 1.1//EN" "http://www.w3.org/Graphics/SVG/1.1/DTD/svg11.dtd">
<!-- Created with Vectornator (http://vectornator.io/) -->
<svg height="100%" stroke-miterlimit="10" style="fill-rule:nonzero;clip-rule:evenodd;stroke-linecap:round;stroke-linejoin:round;" version="1.1" viewBox="0 0 841.995 595.35" width="100%" xml:space="preserve" xmlns="http://www.w3.org/2000/svg" xmlns:vectornator="http://vectornator.io" xmlns:xlink="http://www.w3.org/1999/xlink">
<defs/>
<g id="Capa-1" vectornator:layerName="Capa 1">
<g opacity="1" vectornator:layerName="Grupo 3">
<path d="M298.894 185.194L249.796 283.798L273.516 366.359L319.412 385.823L359.175 260.439L298.894 185.194Z" fill="#000000" fill-rule="nonzero" opacity="0.999808" stroke="none" vectornator:layerName="Óvalo 17"/>
<path d="M544.112 197.009L584.297 302.131L553.527 380.714L506.225 393.373L477.652 263L544.112 197.009Z" fill="#000000" fill-rule="nonzero" opacity="0.999808" stroke="none" vectornator:layerName="Óvalo 18"/>
<path d="M499.693 396.715L484.164 262.711L499.693 396.715Z" fill="#8b8b8b" fill-rule="nonzero" opacity="0.999808" stroke="none" vectornator:layerName="Óvalo 19"/>
<path d="M301.57 234.194C301.57 234.194 276.87 277.093 287.182 309.889C297.495 342.686 314.092 356.63 314.092 356.63L338.357 280.113L301.57 234.194Z" fill="#cd6600" fill-rule="nonzero" opacity="0.999808" stroke="none" vectornator:layerName="Óvalo 20"/>
<path d="M537.179 245.307C537.179 245.307 557.981 291.528 544.873 322.615C531.765 353.701 514.058 365.141 514.058 365.141L496.622 285.579L537.179 245.307Z" fill="#cd6600" fill-rule="nonzero" opacity="0.999808" stroke="none" vectornator:layerName="Óvalo 21"/>
<path d="M491.908 244.077L508.963 410.968L316.805 401.379L345.397 226.446L406.233 236.489L423.059 210.892L422.281 235.698L434.678 215.77L434.455 237.572L491.908 244.077Z" fill="#000000" fill-rule="nonzero" opacity="0.999808" stroke="none" vectornator:layerName="Óvalo 22"/>
<path d="M369.989 317.431L371.887 354.125L346.75 352.735L350.844 314.098L369.989 317.431Z" fill="#8b2500" fill-rule="nonzero" opacity="0.999808" stroke="none" vectornator:layerName="Óvalo 23"/>
<path d="M486.024 317.431L487.922 354.125L462.785 352.735L466.879 314.098L486.024 317.431Z" fill="#8b2500" fill-rule="nonzero" opacity="0.999808" stroke="none" vectornator:layerName="Óvalo 24"/>
<path d="M351.214 325.953L356.63 318.54L362.046 325.953L356.63 333.366L351.214 325.953Z" fill="#cd6600" fill-rule="nonzero" opacity="0.999808" stroke="none" vectornator:layerName="Óvalo 25"/>
<path d="M466.33 324.445L471.746 317.032L477.162 324.445L471.746 331.858L466.33 324.445Z" fill="#cd6600" fill-rule="nonzero" opacity="0.999808" stroke="none" vectornator:layerName="Óvalo 26"/>
<path d="M434.653 355.284L438.913 400.434L390.204 397.977L397.519 350.618L434.653 355.284Z" fill="#cd6600" fill-rule="nonzero" opacity="0.999808" stroke="none" vectornator:layerName="Óvalo 27"/>
<path d="M431.297 318.458L434.72 355.217L395.48 353.234L401.383 314.672L431.297 318.458Z" fill="#8b2500" fill-rule="nonzero" opacity="0.999808" stroke="none" vectornator:layerName="Óvalo 28"/>
</g>
<g opacity="1" vectornator:layerName="Grupo 5">
<path d="M142.687 82.5875L223.051 82.5875L223.051 519.718L142.687 519.718L142.687 82.5875Z" fill="#000000" fill-rule="nonzero" opacity="1" stroke="none" vectornator:layerName="Rectángulo 17"/>
<path d="M118.985 527.978L135.728 511.236L225.832 511.236L242.575 527.978L242.575 527.978C242.575 537.225 225.832 544.721 225.832 544.721L135.728 544.721C135.728 544.721 118.985 537.225 118.985 527.978L118.985 527.978Z" fill="#000000" fill-rule="nonzero" opacity="1" stroke="none" vectornator:layerName="Rectángulo 18"/>
<path d="M120.829 66.4941L137.572 83.2365L227.677 83.2365L244.419 66.4941L244.419 66.4941C244.419 57.2475 227.677 49.7516 227.677 49.7516L137.572 49.7516C137.572 49.7516 120.829 57.2475 120.829 66.4941L120.829 66.4941Z" fill="#000000" fill-rule="nonzero" opacity="1" stroke="none" vectornator:layerName="Rectángulo 19"/>
<path d="M91.5884 563.236L110.157 544.667L136.625 544.667L254.447 544.667L273.016 563.236L273.016 563.236C273.016 573.491 254.447 581.805 254.447 581.805L110.157 581.805C110.157 581.805 91.5884 573.491 91.5884 563.236L91.5884 563.236Z" fill="#000000" fill-rule="nonzero" opacity="1" stroke="none" vectornator:layerName="Rectángulo 20"/>
<path d="M93.4327 31.2362L112.002 49.8051L228.772 49.8051L256.291 49.8051L274.86 31.2362L274.86 31.2362C274.86 20.9809 256.291 12.6673 256.291 12.6673L112.002 12.6673C112.002 12.6673 93.4327 20.9809 93.4327 31.2362L93.4327 31.2362Z" fill="#000000" fill-rule="nonzero" opacity="1" stroke="none" vectornator:layerName="Rectángulo 21"/>
<path d="M154.47 108.268L160.003 102.735L160.003 102.735C163.059 102.735 165.536 108.268 165.536 108.268L165.536 480.197L160.003 485.73L160.003 485.73C156.947 485.73 154.47 480.197 154.47 480.197L154.47 108.268Z" fill="#8b2500" fill-rule="nonzero" opacity="1" stroke="none" vectornator:layerName="Rectángulo 25"/>
<path d="M177.36 108.268L182.893 102.735L182.893 102.735C185.948 102.735 188.425 108.268 188.425 108.268L188.425 480.197L182.893 485.73L182.893 485.73C179.837 485.73 177.36 480.197 177.36 480.197L177.36 108.268Z" fill="#8b2500" fill-rule="nonzero" opacity="1" stroke="none" vectornator:layerName="Rectángulo 26"/>
<path d="M200.25 108.268L205.782 102.735L205.782 102.735C208.838 102.735 211.315 108.268 211.315 108.268L211.315 480.197L205.782 485.73L205.782 485.73C202.727 485.73 200.25 480.197 200.25 480.197L200.25 108.268Z" fill="#8b2500" fill-rule="nonzero" opacity="1" stroke="none" vectornator:layerName="Rectángulo 24"/>
</g>
<g opacity="1" vectornator:layerName="Grupo 6">
<path d="M604.567 82.5875L684.93 82.5875L684.93 519.718L604.567 519.718L604.567 82.5875Z" fill="#000000" fill-rule="nonzero" opacity="1" stroke="none" vectornator:layerName="Rectángulo 17"/>
<path d="M580.864 527.978L597.607 511.236L687.712 511.236L704.454 527.978L704.454 527.978C704.454 537.225 687.712 544.721 687.712 544.721L597.607 544.721C597.607 544.721 580.864 537.225 580.864 527.978L580.864 527.978Z" fill="#000000" fill-rule="nonzero" opacity="1" stroke="none" vectornator:layerName="Rectángulo 18"/>
<path d="M582.709 66.4941L599.451 83.2365L689.556 83.2365L706.298 66.4941L706.298 66.4941C706.298 57.2475 689.556 49.7516 689.556 49.7516L599.451 49.7516C599.451 49.7516 582.709 57.2475 582.709 66.4941L582.709 66.4941Z" fill="#000000" fill-rule="nonzero" opacity="1" stroke="none" vectornator:layerName="Rectángulo 19"/>
<path d="M553.468 563.236L572.037 544.667L598.504 544.667L716.326 544.667L734.895 563.236L734.895 563.236C734.895 573.491 716.326 581.805 716.326 581.805L572.037 581.805C572.037 581.805 553.468 573.491 553.468 563.236L553.468 563.236Z" fill="#000000" fill-rule="nonzero" opacity="1" stroke="none" vectornator:layerName="Rectángulo 20"/>
<path d="M555.312 31.2362L573.881 49.8051L690.651 49.8051L718.17 49.8051L736.739 31.2362L736.739 31.2362C736.739 20.9809 718.17 12.6673 718.17 12.6673L573.881 12.6673C573.881 12.6673 555.312 20.9809 555.312 31.2362L555.312 31.2362Z" fill="#000000" fill-rule="nonzero" opacity="1" stroke="none" vectornator:layerName="Rectángulo 21"/>
<path d="M616.349 108.268L621.882 102.735L621.882 102.735C624.938 102.735 627.415 108.268 627.415 108.268L627.415 480.197L621.882 485.73L621.882 485.73C618.826 485.73 616.349 480.197 616.349 480.197L616.349 108.268Z" fill="#8b2500" fill-rule="nonzero" opacity="1" stroke="none" vectornator:layerName="Rectángulo 25"/>
<path d="M639.239 108.268L644.772 102.735L644.772 102.735C647.828 102.735 650.305 108.268 650.305 108.268L650.305 480.197L644.772 485.73L644.772 485.73C641.716 485.73 639.239 480.197 639.239 480.197L639.239 108.268Z" fill="#8b2500" fill-rule="nonzero" opacity="1" stroke="none" vectornator:layerName="Rectángulo 26"/>
<path d="M662.129 108.268L667.662 102.735L667.662 102.735C670.717 102.735 673.194 108.268 673.194 108.268L673.194 480.197L667.662 485.73L667.662 485.73C664.606 485.73 662.129 480.197 662.129 480.197L662.129 108.268Z" fill="#8b2500" fill-rule="nonzero" opacity="1" stroke="none" vectornator:layerName="Rectángulo 24"/>
</g>
</g>
</svg>
