<?xml version="1.0" encoding="UTF-8" standalone="no"?>
<!DOCTYPE svg PUBLIC "-//W3C//DTD SVG 1.1//EN" "http://www.w3.org/Graphics/SVG/1.1/DTD/svg11.dtd">
<!-- Created with Vectornator (http://vectornator.io/) -->
<svg height="100%" stroke-miterlimit="10" style="fill-rule:nonzero;clip-rule:evenodd;stroke-linecap:round;stroke-linejoin:round;" version="1.1" viewBox="0 0 841.995 595.35" width="100%" xml:space="preserve" xmlns="http://www.w3.org/2000/svg" xmlns:vectornator="http://vectornator.io" xmlns:xlink="http://www.w3.org/1999/xlink">
<defs/>
<g id="Capa-1" vectornator:layerName="Capa 1">
<path d="M124.123 12.549L0.824038 260.169L60.3922 467.501L175.65 516.381L275.503 201.51L124.123 12.549Z" fill="#6d6a6a" fill-rule="nonzero" opacity="0.999808" stroke="none" vectornator:layerName="Óvalo 17"/>
<path d="M739.931 42.2188L840.847 306.209L763.574 503.55L644.786 535.342L573.033 207.941L739.931 42.2188Z" fill="#6d6a6a" fill-rule="nonzero" opacity="0.999808" stroke="none" vectornator:layerName="Óvalo 18"/>
<path d="M628.382 543.733L589.385 207.214L628.382 543.733Z" fill="#8b8b8b" fill-rule="nonzero" opacity="0.999808" stroke="none" vectornator:layerName="Óvalo 19"/>
<path d="M130.843 135.601C130.843 135.601 68.8137 243.33 94.7115 325.692C120.609 408.053 162.288 443.07 162.288 443.07L223.224 250.916L130.843 135.601Z" fill="#dfd2bf" fill-rule="nonzero" opacity="0.999808" stroke="none" vectornator:layerName="Óvalo 20"/>
<path d="M722.521 163.509C722.521 163.509 774.759 279.581 741.842 357.649C708.926 435.716 664.458 464.442 664.458 464.442L620.67 264.643L722.521 163.509Z" fill="#dfd2bf" fill-rule="nonzero" opacity="0.999808" stroke="none" vectornator:layerName="Óvalo 21"/>
<path d="M608.833 160.42L651.663 579.528L169.103 555.447L240.905 116.142L393.679 141.364L435.936 77.0817L433.981 139.378L465.113 89.3319L464.554 144.084L608.833 160.42Z" fill="#6d6a6a" fill-rule="nonzero" opacity="0.999808" stroke="none" vectornator:layerName="Óvalo 22"/>
<path d="M302.661 344.63L307.427 436.781L244.302 433.29L254.583 336.26L302.661 344.63Z" fill="#000000" fill-rule="nonzero" opacity="0.999808" stroke="none" vectornator:layerName="Óvalo 23"/>
<path d="M594.057 344.63L598.823 436.781L535.698 433.29L545.979 336.26L594.057 344.63Z" fill="#000000" fill-rule="nonzero" opacity="0.999808" stroke="none" vectornator:layerName="Óvalo 24"/>
<path d="M255.512 366.032L269.113 347.415L282.714 366.032L269.113 384.648L255.512 366.032Z" fill="#dfd2bf" fill-rule="nonzero" opacity="0.999808" stroke="none" vectornator:layerName="Óvalo 25"/>
<path d="M544.599 362.245L558.2 343.629L571.802 362.245L558.2 380.861L544.599 362.245Z" fill="#dfd2bf" fill-rule="nonzero" opacity="0.999808" stroke="none" vectornator:layerName="Óvalo 26"/>
<path d="M465.051 439.69L475.747 553.074L353.426 546.905L371.797 427.973L465.051 439.69Z" fill="#dfd2bf" fill-rule="nonzero" opacity="0.999808" stroke="none" vectornator:layerName="Óvalo 27"/>
<path d="M456.623 347.209L465.218 439.521L366.677 434.542L381.5 337.703L456.623 347.209Z" fill="#000000" fill-rule="nonzero" opacity="0.999808" stroke="none" vectornator:layerName="Óvalo 28"/>
</g>
</svg>
